<svg width="51" height="43" viewBox="0 0 51 43" fill="none" xmlns="http://www.w3.org/2000/svg">
<path d="M17.4474 21.4998C16.2171 21.4998 15.1639 21.0613 14.2878 20.1841C13.4117 19.3069 12.9737 18.2524 12.9737 17.0207C12.9737 15.7889 13.4117 14.7344 14.2878 13.8573C15.1639 12.9801 16.2171 12.5415 17.4474 12.5415C18.6776 12.5415 19.7308 12.9801 20.6069 13.8573C21.483 14.7344 21.9211 15.7889 21.9211 17.0207C21.9211 18.2524 21.483 19.3069 20.6069 20.1841C19.7308 21.0613 18.6776 21.4998 17.4474 21.4998ZM8.5 30.4582V27.3228C8.5 26.6882 8.6631 26.105 8.98931 25.5731C9.31552 25.0412 9.7489 24.6353 10.2895 24.3553C11.4452 23.7767 12.6195 23.3428 13.8125 23.0535C15.0055 22.7643 16.2171 22.6196 17.4474 22.6196C18.6776 22.6196 19.8893 22.7643 21.0822 23.0535C22.2752 23.3428 23.4496 23.7767 24.6053 24.3553C25.1458 24.6353 25.5792 25.0412 25.9054 25.5731C26.2316 26.105 26.3947 26.6882 26.3947 27.3228V30.4582H8.5ZM10.7368 28.2186H24.1579V27.3228C24.1579 27.1175 24.1066 26.9308 24.0041 26.7629C23.9016 26.5949 23.7664 26.4642 23.5987 26.3709C22.5921 25.867 21.5762 25.4891 20.551 25.2371C19.5258 24.9852 18.4912 24.8592 17.4474 24.8592C16.4035 24.8592 15.369 24.9852 14.3438 25.2371C13.3185 25.4891 12.3026 25.867 11.2961 26.3709C11.1283 26.4642 10.9931 26.5949 10.8906 26.7629C10.7881 26.9308 10.7368 27.1175 10.7368 27.3228V28.2186ZM17.4474 19.2603C18.0625 19.2603 18.5891 19.041 19.0271 18.6024C19.4652 18.1638 19.6842 17.6366 19.6842 17.0207C19.6842 16.4048 19.4652 15.8775 19.0271 15.439C18.5891 15.0004 18.0625 14.7811 17.4474 14.7811C16.8322 14.7811 16.3056 15.0004 15.8676 15.439C15.4296 15.8775 15.2105 16.4048 15.2105 17.0207C15.2105 17.6366 15.4296 18.1638 15.8676 18.6024C16.3056 19.041 16.8322 19.2603 17.4474 19.2603Z" fill="#FEF7FF"/>
<path d="M35.8452 23.2355H29.4702V21.1079H35.8452V14.7251H37.9702V21.1079H44.3452V23.2355H37.9702V29.6183H35.8452V23.2355Z" fill="#FEF7FF"/>
</svg>
