<svg width="36" height="36" viewBox="0 0 36 36" fill="none" xmlns="http://www.w3.org/2000/svg">
<path opacity="0.2" d="M27 15.75C27 17.975 26.3402 20.1501 25.104 22.0002C23.8679 23.8502 22.1109 25.2922 20.0552 26.1436C17.9995 26.9951 15.7375 27.2179 13.5552 26.7838C11.373 26.3498 9.36839 25.2783 7.79505 23.705C6.22171 22.1316 5.15025 20.1271 4.71617 17.9448C4.28209 15.7625 4.50487 13.5005 5.35636 11.4448C6.20785 9.38914 7.64979 7.63213 9.49984 6.39597C11.3499 5.1598 13.525 4.5 15.75 4.5C17.2274 4.5 18.6903 4.79099 20.0552 5.35636C21.4201 5.92172 22.6603 6.75039 23.705 7.79505C24.7496 8.83971 25.5783 10.0799 26.1437 11.4448C26.709 12.8097 27 14.2726 27 15.75Z" fill="white"/>
<path d="M32.2962 30.7042L25.2565 23.6645C27.3009 21.2126 28.3213 18.0669 28.1054 14.8818C27.8895 11.6967 26.4539 8.7175 24.0974 6.56391C21.7408 4.41031 18.6447 3.24817 15.4531 3.31924C12.2615 3.39031 9.22015 4.68913 6.96179 6.94549C4.70343 9.20186 3.40193 12.242 3.32803 15.4336C3.25414 18.6251 4.41355 21.7223 6.56506 24.0807C8.71657 26.4392 11.6945 27.8774 14.8794 28.0961C18.0643 28.3148 21.2109 27.2972 23.6646 25.255L30.7043 32.2961C30.8088 32.4006 30.9329 32.4835 31.0695 32.5401C31.206 32.5966 31.3524 32.6257 31.5002 32.6257C31.6481 32.6257 31.7944 32.5966 31.931 32.5401C32.0676 32.4835 32.1917 32.4006 32.2962 32.2961C32.4007 32.1915 32.4836 32.0674 32.5402 31.9309C32.5967 31.7943 32.6259 31.6479 32.6259 31.5001C32.6259 31.3523 32.5967 31.2059 32.5402 31.0694C32.4836 30.9328 32.4007 30.8087 32.2962 30.7042ZM5.62524 15.7501C5.62524 13.7476 6.21906 11.79 7.33161 10.125C8.44416 8.45992 10.0255 7.16218 11.8756 6.39584C13.7257 5.6295 15.7615 5.42899 17.7255 5.81967C19.6896 6.21034 21.4937 7.17466 22.9097 8.59066C24.3257 10.0067 25.29 11.8108 25.6807 13.7748C26.0714 15.7389 25.8709 17.7747 25.1045 19.6248C24.3382 21.4749 23.0404 23.0562 21.3754 24.1687C19.7103 25.2813 17.7528 25.8751 15.7502 25.8751C13.0658 25.8721 10.4922 24.8044 8.59407 22.9063C6.69591 21.0081 5.62822 18.4345 5.62524 15.7501Z" fill="white"/>
</svg>
