<svg width="66" height="65" viewBox="0 0 66 65" fill="none" xmlns="http://www.w3.org/2000/svg">
<g clip-path="url(#clip0_374_26898)">
<g clip-path="url(#clip1_374_26898)">
<g clip-path="url(#clip2_374_26898)">
<path d="M62.9918 41.6473C64.3047 38.491 65.1487 35.1252 65.4166 31.6284C65.1755 24.8443 62.1612 18.4924 57.5393 13.3061V12.8346H57.1106C56.923 12.6381 56.7489 12.4417 56.5613 12.2583V10.5558H56.1862H55.302V9.69139H54.4446V8.63055H52.5155C51.5911 7.91024 50.6399 7.2423 49.662 6.60057V6.4827H49.4744C47.2103 5.02896 44.7855 3.81097 42.2803 2.84181V2.34414H40.9139C40.0565 2.05601 39.1991 1.79408 38.3283 1.55834V0.707052H34.0279C33.6394 0.654665 33.2643 0.602278 32.8758 0.562988C32.6212 0.602278 32.3667 0.654665 32.1122 0.707052H31.027V0.916599C30.5849 1.00828 30.1428 1.09995 29.7141 1.20473H27.5572V1.76788C27.3161 1.83337 27.075 1.91195 26.8338 1.97743H23.3641V3.15613C22.788 3.37878 22.2253 3.60142 21.6761 3.83716H21.4081V3.95503C19.6933 4.68845 18.0857 5.51354 16.5451 6.41721H16.1566V6.65295C14.9777 7.37327 13.8389 8.14598 12.7672 8.95797H12.1107V9.02345H11.8294V9.70448C11.6151 9.88784 11.4007 10.0581 11.1864 10.2414H10.4763V10.8701C9.7797 11.5118 9.10986 12.1667 8.48021 12.8477H8.03812V13.3454C5.01044 16.7767 2.89375 20.7974 2.00956 25.3026H1.28613V38.897H1.96937C2.59902 41.608 3.77794 44.3191 5.41235 46.886V47.7897H6.00181C6.69844 48.8112 7.44866 49.8066 8.26586 50.7626V51.3651H8.5338V52.8843H10.2218C10.3156 52.976 10.4094 53.0676 10.5031 53.1593V54.338H11.749C11.8964 54.469 12.0572 54.6131 12.2045 54.744V55.6608H13.2897C18.9029 60.2315 25.9094 63.3486 32.916 63.6236C40.0833 63.2176 47.0228 60.2446 52.6495 55.5691H54.3107V54.4035H55.57V52.8712C55.6101 52.8319 55.6369 52.8057 55.6771 52.7664H56.414V51.9806C56.5613 51.8104 56.7087 51.6532 56.856 51.483H57.5393V50.671C58.3431 49.7018 59.0933 48.6934 59.7899 47.6456H60.433V46.6241C61.2636 45.2751 62.0138 43.8869 62.6569 42.4331H62.9918V41.6473Z" fill="#FE9DCC"/>
<path d="M64.1037 24.3993V23.1159V21.8324V20.5489H62.7908V19.2654V17.9689H61.4779V16.6985V15.415H60.165V14.1184H58.8521V12.835H57.5392V14.1184V15.415H58.8521V16.6985H60.165V17.9689V19.2654H61.4779V20.5489V21.8324H62.7908V23.1159V24.3993V25.6828H64.1037V26.9663V28.2498V29.5333V30.8167V32.1002V33.3837V34.6672V35.9506V37.2341V38.5176H62.7908V39.8011V41.0845V42.368H61.4779V43.6515V44.935H60.165V46.2184V47.5019H58.8521V48.7854H57.5392V50.082V51.3654H58.8521V50.082H60.165V48.7854H61.4779V47.5019V46.2184H62.7908V44.935V43.6515H64.1037V42.368V41.0845V39.8011H65.4166V38.5176V37.2341V35.9506V34.6672V33.3837V32.1002V30.8167V29.5333V28.2498V26.9663V25.6828V24.3993H64.1037Z" fill="#231F20"/>
<path d="M50.9748 7.70096V8.98443H52.2877H53.6006V10.2679H54.9135V11.5514H56.2264V12.8349H57.5393V11.5514V10.2679H56.2264V8.98443H54.9135V7.70096H53.6006H52.2877V6.41748H50.9748H49.6486V7.70096H50.9748Z" fill="#231F20"/>
<path d="M18.7823 6.41738V5.13391H20.1086H21.4215V3.85043H22.7344H24.0472V2.56695H25.3601H26.673H27.9859V1.28348H29.2988H30.6117H31.9246H33.2374H34.5503H35.8632H37.1761H37.8325V2.56695H39.1454H40.4583H41.7712V3.85043H43.0841H44.397V5.13391H45.7099H47.0227V6.41738H48.3356H49.6485V5.13391H48.3356V3.85043H47.0227H45.7099V2.56695H44.397H43.0841V1.28348H41.7712H40.4583H39.1454V0H37.8325H36.5197H35.2068H33.8939H32.581H31.2681H29.9552H28.6423H27.9859H26.673V1.28348H25.3601H24.0472H22.7344V2.56695H21.4215H20.1086V3.85043H18.7823H17.4694V5.13391H16.1699V6.41738H17.4694H18.7823Z" fill="#231F20"/>
<path d="M9.59212 11.5514H10.905V10.2679H12.2179V8.98443H13.5308H14.8437V7.70096H16.1699V6.41748H14.8437H13.5308V7.70096H12.2179H10.905V8.98443H9.59212V10.2679H8.27924V11.5514V12.8349H9.59212V11.5514Z" fill="#231F20"/>
<path d="M56.2264 52.6487H54.9135V53.9322H53.6006V55.2157H52.2877H50.9748V56.4991H49.6486V57.7826H50.9748H52.2877V56.4991H53.6006H54.9135V55.2157H56.2264V53.9322H57.5393V52.6487V51.3652H56.2264V52.6487Z" fill="#231F20"/>
<path d="M47.0227 57.7827V59.0662H45.7099H44.397V60.3497H43.0841H41.7712V61.6331H40.4583H39.1454H37.8325V62.9166H37.1761H35.8632H34.5503H33.2374H31.9246H30.6117H29.2988H27.9859V61.6331H26.673H25.3601H24.0472V60.3497H22.7344H21.4215V59.0662H20.1086H18.7823V57.7827H17.4694H16.1699V59.0662H17.4694V60.3497H18.7823H20.1086V61.6331H21.4215H22.7344V62.9166H24.0472H25.3601H26.673V64.2001H27.9859H28.6423H29.9552H31.2681H32.581H33.8939H35.2068H36.5197H37.8325H39.1454V62.9166H40.4583H41.7712H43.0841V61.6331H44.397H45.7099V60.3497H47.0227H48.3356V59.0662H49.6485V57.7827H48.3356H47.0227Z" fill="#231F20"/>
<path d="M8.27923 48.7854H6.96635V47.5019H5.65346V46.2184V44.935H4.34057V43.6515V42.368H3.02769V41.0845V39.8011V38.5176H1.7148V37.2341V35.9506V34.6672V33.3837V32.1002V30.8167V29.5333V28.2498V26.9663V25.6828H3.02769V24.3993V23.1159V21.8324H4.34057V20.5489V19.2654H5.65346V17.9689V16.6985H6.96635V15.415H8.27923V14.1184V12.835H6.96635V14.1184H5.65346V15.415H4.34057V16.6985V17.9689H3.02769V19.2654V20.5489H1.7148V21.8324V23.1159V24.3993H0.401917V25.6828V26.9663V28.2498V29.5333V30.8167V32.1002V33.3837V34.6672V35.9506V37.2341V38.5176V39.8011H1.7148V41.0845V42.368V43.6515H3.02769V44.935V46.2184H4.34057V47.5019V48.7854H5.65346V50.082H6.96635V51.3654H8.27923V50.082V48.7854Z" fill="#231F20"/>
<path d="M14.8437 56.4991V55.2157H13.5308H12.2179V53.9322H10.905V52.6487H9.59212V51.3652H8.27924V52.6487V53.9322H9.59212V55.2157H10.905V56.4991H12.2179H13.5308V57.7826H14.8437H16.1699V56.4991H14.8437Z" fill="#231F20"/>
</g>
</g>
</g>
<path d="M48.7509 33.3569H47.438V34.6404H48.7509V33.3569Z" fill="#3A2724"/>
<path d="M48.7509 32.0737H47.438V33.3572H48.7509V32.0737Z" fill="#3A2724"/>
<path d="M48.7509 30.79H47.438V32.0735H48.7509V30.79Z" fill="#3A2724"/>
<path d="M47.438 34.6406H46.1251V35.9241H47.438V34.6406Z" fill="#3A2724"/>
<path d="M47.438 29.5068H46.1251V30.7903H47.438V29.5068Z" fill="#3A2724"/>
<path d="M47.438 28.21H46.1251V29.4934H47.438V28.21Z" fill="#3A2724"/>
<path d="M47.438 26.9399H46.1251V28.2234H47.438V26.9399Z" fill="#3A2724"/>
<path d="M47.438 25.6431H46.1251V26.9265H47.438V25.6431Z" fill="#3A2724"/>
<path d="M47.438 24.3599H46.1251V25.6433H47.438V24.3599Z" fill="#3A2724"/>
<path d="M46.1251 35.9238H44.8123V37.2073H46.1251V35.9238Z" fill="#3A2724"/>
<path d="M46.1251 29.5068H44.8123V30.7903H46.1251V29.5068Z" fill="#3A2724"/>
<path d="M46.1251 24.3599H44.8123V25.6433H46.1251V24.3599Z" fill="#3A2724"/>
<path d="M46.1251 23.0762H44.8123V24.3596H46.1251V23.0762Z" fill="#3A2724"/>
<path d="M46.1251 21.7925H44.8123V23.076H46.1251V21.7925Z" fill="#3A2724"/>
<path d="M46.1251 20.5093H44.8123V21.7928H46.1251V20.5093Z" fill="#3A2724"/>
<path d="M44.8123 39.7744H43.4994V41.0579H44.8123V39.7744Z" fill="#3A2724"/>
<path d="M44.8123 38.4912H43.4994V39.7747H44.8123V38.4912Z" fill="#3A2724"/>
<path d="M44.8123 37.2075H43.4994V38.491H44.8123V37.2075Z" fill="#3A2724"/>
<path d="M44.8123 35.9238H43.4994V37.2073H44.8123V35.9238Z" fill="#3A2724"/>
<path d="M44.8123 34.6406H43.4994V35.9241H44.8123V34.6406Z" fill="#3A2724"/>
<path d="M44.8123 33.3569H43.4994V34.6404H44.8123V33.3569Z" fill="#3A2724"/>
<path d="M44.8123 32.0737H43.4994V33.3572H44.8123V32.0737Z" fill="#3A2724"/>
<path d="M44.8123 30.79H43.4994V32.0735H44.8123V30.79Z" fill="#3A2724"/>
<path d="M44.8123 29.5068H43.4994V30.7903H44.8123V29.5068Z" fill="#3A2724"/>
<path d="M44.8123 19.2256H43.4994V20.5091H44.8123V19.2256Z" fill="#3A2724"/>
<path d="M44.8123 17.9424H43.4994V19.2259H44.8123V17.9424Z" fill="#3A2724"/>
<path d="M44.8123 16.6587H43.4994V17.9422H44.8123V16.6587Z" fill="#3A2724"/>
<path d="M43.4993 41.0581H42.1865V42.3416H43.4993V41.0581Z" fill="#3A2724"/>
<path d="M43.4993 39.7744H42.1865V41.0579H43.4993V39.7744Z" fill="#3A2724"/>
<path d="M43.4993 16.6587H42.1865V17.9422H43.4993V16.6587Z" fill="#3A2724"/>
<path d="M42.1865 42.3413H40.8736V43.6248H42.1865V42.3413Z" fill="#3A2724"/>
<path d="M42.1865 41.0581H40.8736V42.3416H42.1865V41.0581Z" fill="#3A2724"/>
<path d="M42.1865 26.9399H40.8736V28.2234H42.1865V26.9399Z" fill="#593126"/>
<path d="M42.1865 16.6587H40.8736V17.9422H42.1865V16.6587Z" fill="#3A2724"/>
<path d="M42.1865 15.3755H40.8736V16.659H42.1865V15.3755Z" fill="#3A2724"/>
<path d="M40.8736 43.625H39.5607V44.9085H40.8736V43.625Z" fill="#3A2724"/>
<path d="M40.8736 32.0737H39.5607V33.3572H40.8736V32.0737Z" fill="white"/>
<path d="M40.8736 30.79H39.5607V32.0735H40.8736V30.79Z" fill="white"/>
<path d="M40.8736 29.5068H39.5607V30.7903H40.8736V29.5068Z" fill="white"/>
<path d="M40.8736 26.9399H39.5607V28.2234H40.8736V26.9399Z" fill="#593126"/>
<path d="M40.8736 15.3755H39.5607V16.659H40.8736V15.3755Z" fill="#3A2724"/>
<path d="M40.8736 14.0918H39.5607V15.3753H40.8736V14.0918Z" fill="#3A2724"/>
<path d="M39.5607 44.9082H38.2478V46.1917H39.5607V44.9082Z" fill="#3A2724"/>
<path d="M39.5607 43.625H38.2478V44.9085H39.5607V43.625Z" fill="#3A2724"/>
<path d="M39.5607 32.0737H38.2478V33.3572H39.5607V32.0737Z" fill="white"/>
<path d="M39.5607 30.79H38.2478V32.0735H39.5607V30.79Z" fill="#3A2724"/>
<path d="M39.5607 29.5068H38.2478V30.7903H39.5607V29.5068Z" fill="#3A2724"/>
<path d="M39.5607 26.9399H38.2478V28.2234H39.5607V26.9399Z" fill="#593126"/>
<path d="M39.5607 14.0918H38.2478V15.3753H39.5607V14.0918Z" fill="#3A2724"/>
<path d="M38.2478 50.0425H36.9349V51.326H38.2478V50.0425Z" fill="#3A2724"/>
<path d="M38.2478 48.7588H36.9349V50.0423H38.2478V48.7588Z" fill="#3A2724"/>
<path d="M38.2478 47.4751H36.9349V48.7586H38.2478V47.4751Z" fill="#3A2724"/>
<path d="M38.2478 46.1919H36.9349V47.4754H38.2478V46.1919Z" fill="#3A2724"/>
<path d="M38.2478 44.9082H36.9349V46.1917H38.2478V44.9082Z" fill="#3A2724"/>
<path d="M38.2478 32.0737H36.9349V33.3572H38.2478V32.0737Z" fill="white"/>
<path d="M38.2478 30.79H36.9349V32.0735H38.2478V30.79Z" fill="#3A2724"/>
<path d="M38.2478 29.5068H36.9349V30.7903H38.2478V29.5068Z" fill="#3A2724"/>
<path d="M38.2478 26.9399H36.9349V28.2234H38.2478V26.9399Z" fill="#593126"/>
<path d="M38.2478 14.0918H36.9349V15.3753H38.2478V14.0918Z" fill="#3A2724"/>
<path d="M38.2478 12.8086H36.9349V14.0921H38.2478V12.8086Z" fill="#3A2724"/>
<path d="M36.935 46.1919H35.6221V47.4754H36.935V46.1919Z" fill="#3A2724"/>
<path d="M36.935 32.0737H35.6221V33.3572H36.935V32.0737Z" fill="white"/>
<path d="M36.935 30.79H35.6221V32.0735H36.935V30.79Z" fill="white"/>
<path d="M36.935 29.5068H35.6221V30.7903H36.935V29.5068Z" fill="white"/>
<path d="M36.935 12.8086H35.6221V14.0921H36.935V12.8086Z" fill="#3A2724"/>
<path d="M35.622 46.1919H34.3091V47.4754H35.622V46.1919Z" fill="#3A2724"/>
<path d="M35.622 39.7744H34.3091V41.0579H35.622V39.7744Z" fill="#974928"/>
<path d="M35.622 12.8086H34.3091V14.0921H35.622V12.8086Z" fill="#3A2724"/>
<path d="M35.622 11.5249H34.3091V12.8084H35.622V11.5249Z" fill="#3A2724"/>
<path d="M34.3092 47.4751H32.9963V48.7586H34.3092V47.4751Z" fill="#3A2724"/>
<path d="M34.3092 41.0581H32.9963V42.3416H34.3092V41.0581Z" fill="#974928"/>
<path d="M34.3092 11.5249H32.9963V12.8084H34.3092V11.5249Z" fill="#3A2724"/>
<path d="M32.9829 47.4751H31.67V48.7586H32.9829V47.4751Z" fill="#3A2724"/>
<path d="M32.9829 41.0581H31.67V42.3416H32.9829V41.0581Z" fill="#974928"/>
<path d="M32.9829 11.5249H31.67V12.8084H32.9829V11.5249Z" fill="#3A2724"/>
<path d="M31.6834 47.4751H30.3705V48.7586H31.6834V47.4751Z" fill="#3A2724"/>
<path d="M31.6834 41.0581H30.3705V42.3416H31.6834V41.0581Z" fill="#974928"/>
<path d="M31.6834 37.2075H30.3705V38.491H31.6834V37.2075Z" fill="#A05244"/>
<path d="M31.6834 35.9238H30.3705V37.2073H31.6834V35.9238Z" fill="#A05244"/>
<path d="M31.6834 33.3569H30.3705V34.6404H31.6834V33.3569Z" fill="#A05244"/>
<path d="M31.6834 11.5249H30.3705V12.8084H31.6834V11.5249Z" fill="#3A2724"/>
<path d="M30.3571 47.4751H29.0443V48.7586H30.3571V47.4751Z" fill="#3A2724"/>
<path d="M30.3571 41.0581H29.0443V42.3416H30.3571V41.0581Z" fill="#974928"/>
<path d="M30.3571 35.9238H29.0443V37.2073H30.3571V35.9238Z" fill="#A05244"/>
<path d="M30.3571 34.6406H29.0443V35.9241H30.3571V34.6406Z" fill="#A05244"/>
<path d="M30.3571 11.5249H29.0443V12.8084H30.3571V11.5249Z" fill="#3A2724"/>
<path d="M29.0442 46.1919H27.7313V47.4754H29.0442V46.1919Z" fill="#3A2724"/>
<path d="M29.0442 39.7744H27.7313V41.0579H29.0442V39.7744Z" fill="#974928"/>
<path d="M29.0442 12.8086H27.7313V14.0921H29.0442V12.8086Z" fill="#3A2724"/>
<path d="M29.0442 11.5249H27.7313V12.8084H29.0442V11.5249Z" fill="#3A2724"/>
<path d="M27.7313 46.1919H26.4185V47.4754H27.7313V46.1919Z" fill="#3A2724"/>
<path d="M27.7313 44.9082H26.4185V46.1917H27.7313V44.9082Z" fill="#3A2724"/>
<path d="M27.7313 32.0737H26.4185V33.3572H27.7313V32.0737Z" fill="white"/>
<path d="M27.7313 30.79H26.4185V32.0735H27.7313V30.79Z" fill="white"/>
<path d="M27.7313 29.5068H26.4185V30.7903H27.7313V29.5068Z" fill="white"/>
<path d="M27.7313 12.8086H26.4185V14.0921H27.7313V12.8086Z" fill="#3A2724"/>
<path d="M26.4185 50.0425H25.1056V51.326H26.4185V50.0425Z" fill="#3A2724"/>
<path d="M26.4185 48.7588H25.1056V50.0423H26.4185V48.7588Z" fill="#3A2724"/>
<path d="M26.4185 47.4751H25.1056V48.7586H26.4185V47.4751Z" fill="#3A2724"/>
<path d="M26.4185 46.1919H25.1056V47.4754H26.4185V46.1919Z" fill="#3A2724"/>
<path d="M26.4185 44.9082H25.1056V46.1917H26.4185V44.9082Z" fill="#3A2724"/>
<path d="M26.4185 32.0737H25.1056V33.3572H26.4185V32.0737Z" fill="white"/>
<path d="M26.4185 30.79H25.1056V32.0735H26.4185V30.79Z" fill="#3A2724"/>
<path d="M26.4185 29.5068H25.1056V30.7903H26.4185V29.5068Z" fill="#3A2724"/>
<path d="M26.4185 26.9399H25.1056V28.2234H26.4185V26.9399Z" fill="#593126"/>
<path d="M26.4185 12.8086H25.1056V14.0921H26.4185V12.8086Z" fill="#3A2724"/>
<path d="M25.1055 44.9082H23.7927V46.1917H25.1055V44.9082Z" fill="#3A2724"/>
<path d="M25.1055 43.625H23.7927V44.9085H25.1055V43.625Z" fill="#3A2724"/>
<path d="M25.1055 32.0737H23.7927V33.3572H25.1055V32.0737Z" fill="white"/>
<path d="M25.1055 30.79H23.7927V32.0735H25.1055V30.79Z" fill="#3A2724"/>
<path d="M25.1055 29.5068H23.7927V30.7903H25.1055V29.5068Z" fill="#3A2724"/>
<path d="M25.1055 26.9399H23.7927V28.2234H25.1055V26.9399Z" fill="#593126"/>
<path d="M25.1055 14.0918H23.7927V15.3753H25.1055V14.0918Z" fill="#3A2724"/>
<path d="M23.7927 43.625H22.4798V44.9085H23.7927V43.625Z" fill="#3A2724"/>
<path d="M23.7927 42.3413H22.4798V43.6248H23.7927V42.3413Z" fill="#3A2724"/>
<path d="M23.7927 32.0737H22.4798V33.3572H23.7927V32.0737Z" fill="white"/>
<path d="M23.7927 30.79H22.4798V32.0735H23.7927V30.79Z" fill="white"/>
<path d="M23.7927 29.5068H22.4798V30.7903H23.7927V29.5068Z" fill="white"/>
<path d="M23.7927 26.9399H22.4798V28.2234H23.7927V26.9399Z" fill="#593126"/>
<path d="M23.7927 14.0918H22.4798V15.3753H23.7927V14.0918Z" fill="#3A2724"/>
<path d="M22.4798 42.3413H21.1669V43.6248H22.4798V42.3413Z" fill="#3A2724"/>
<path d="M22.4798 41.0581H21.1669V42.3416H22.4798V41.0581Z" fill="#3A2724"/>
<path d="M22.4798 26.9399H21.1669V28.2234H22.4798V26.9399Z" fill="#593126"/>
<path d="M22.4798 15.3755H21.1669V16.659H22.4798V15.3755Z" fill="#3A2724"/>
<path d="M22.4798 14.0918H21.1669V15.3753H22.4798V14.0918Z" fill="#3A2724"/>
<path d="M21.1669 39.7744H19.854V41.0579H21.1669V39.7744Z" fill="#3A2724"/>
<path d="M21.1669 16.6587H19.854V17.9422H21.1669V16.6587Z" fill="#3A2724"/>
<path d="M19.854 39.7744H18.5411V41.0579H19.854V39.7744Z" fill="#3A2724"/>
<path d="M19.854 38.4912H18.5411V39.7747H19.854V38.4912Z" fill="#3A2724"/>
<path d="M19.854 37.2075H18.5411V38.491H19.854V37.2075Z" fill="#3A2724"/>
<path d="M19.854 35.9238H18.5411V37.2073H19.854V35.9238Z" fill="#3A2724"/>
<path d="M19.854 34.6406H18.5411V35.9241H19.854V34.6406Z" fill="#3A2724"/>
<path d="M19.854 33.3569H18.5411V34.6404H19.854V33.3569Z" fill="#3A2724"/>
<path d="M19.854 32.0737H18.5411V33.3572H19.854V32.0737Z" fill="#3A2724"/>
<path d="M19.854 30.79H18.5411V32.0735H19.854V30.79Z" fill="#3A2724"/>
<path d="M19.854 29.5068H18.5411V30.7903H19.854V29.5068Z" fill="#3A2724"/>
<path d="M19.854 19.2256H18.5411V20.5091H19.854V19.2256Z" fill="#3A2724"/>
<path d="M19.854 17.9424H18.5411V19.2259H19.854V17.9424Z" fill="#3A2724"/>
<path d="M18.5412 35.9238H17.2283V37.2073H18.5412V35.9238Z" fill="#3A2724"/>
<path d="M18.5412 29.5068H17.2283V30.7903H18.5412V29.5068Z" fill="#3A2724"/>
<path d="M18.5412 24.3599H17.2283V25.6433H18.5412V24.3599Z" fill="#3A2724"/>
<path d="M18.5412 23.0762H17.2283V24.3596H18.5412V23.0762Z" fill="#3A2724"/>
<path d="M18.5412 21.7925H17.2283V23.076H18.5412V21.7925Z" fill="#3A2724"/>
<path d="M18.5412 20.5093H17.2283V21.7928H18.5412V20.5093Z" fill="#3A2724"/>
<path d="M18.5412 19.2256H17.2283V20.5091H18.5412V19.2256Z" fill="#3A2724"/>
<path d="M17.2282 34.6406H15.9153V35.9241H17.2282V34.6406Z" fill="#3A2724"/>
<path d="M17.2282 29.5068H15.9153V30.7903H17.2282V29.5068Z" fill="#3A2724"/>
<path d="M17.2282 28.21H15.9153V29.4934H17.2282V28.21Z" fill="#3A2724"/>
<path d="M17.2282 26.9399H15.9153V28.2234H17.2282V26.9399Z" fill="#3A2724"/>
<path d="M17.2282 25.6431H15.9153V26.9265H17.2282V25.6431Z" fill="#3A2724"/>
<path d="M17.2282 24.3599H15.9153V25.6433H17.2282V24.3599Z" fill="#3A2724"/>
<path d="M15.9154 33.3569H14.6025V34.6404H15.9154V33.3569Z" fill="#3A2724"/>
<path d="M15.9154 32.0737H14.6025V33.3572H15.9154V32.0737Z" fill="#3A2724"/>
<path d="M15.9154 30.79H14.6025V32.0735H15.9154V30.79Z" fill="#3A2724"/>
<path d="M46.1251 30.7905H44.8123V32.074V33.3575V34.641V35.9244H46.1251V34.641H47.438V33.3575V32.074V30.7905H46.1251Z" fill="#C16941"/>
<path d="M46.1251 29.5069V28.2234V26.9399V25.6565H44.8122V24.3599V23.0764V21.7929V20.5095H43.4993V19.226V17.9425H42.1864H40.8736V16.659H39.5607V15.3755H38.2478H36.9349V14.0921H35.622H34.3091V12.8086H32.9962H31.6834H30.3705H29.0576V14.0921H27.7313H26.4184H25.1055V15.3755H23.7926H22.4798V16.659H21.1669V17.9425H19.854V19.226V20.5095H18.5411V21.7929V23.0764V24.3599V25.6434H17.2282V26.9268V28.2103V29.4938H18.5411H19.854V30.7773V32.0607V33.3442V34.6277V35.9112V37.1946V38.4781V39.7616H21.1669V41.0451H22.4798V42.3285H23.7926V43.612H25.1055V44.8955H26.4184H27.7313V46.179H29.0442V47.4625H30.3571H31.67H32.9828H34.2957V46.179H35.6086H36.9215V44.8955H38.2344V43.612H39.5473H40.8602V42.3285V41.0451H42.173V39.7616H43.4859V38.4781V37.1946V35.9112V34.6277V33.3442V32.0607V30.7773V29.4938H44.7988H46.1251V29.5069ZM42.1864 28.2103H40.8736H39.5607H38.2478H36.9349V26.9268H38.2478H39.5607H40.8736H42.1864V28.2103ZM40.8736 30.7904V32.0738V33.3573H39.5607H38.2478H36.9349H35.622V32.0738V30.7904V29.5069H36.9349H38.2478H39.5607H40.8736V30.7904ZM22.4798 32.0738V30.7904V29.5069H23.7926H25.1055H26.4184H27.7313V30.7904V32.0738V33.3573H26.4184H25.1055H23.7926H22.4798V32.0738ZM21.1669 26.9399H22.4798H23.7926H25.1055H26.4184V28.2234H25.1055H23.7926H22.4798H21.1669V26.9399ZM35.622 41.0582H34.3091V42.3416H32.9962H31.6834H30.3705H29.0576V41.0582H27.7313V39.7747H29.0442V41.0582H30.3571H31.67H32.9828H34.2957V39.7747H35.6086V41.0582H35.622ZM30.3571 34.6408V33.3573H31.67V34.6408H30.3571V35.9243H31.67V37.2077V38.4912H30.3571V37.2077H29.0442V35.9243V34.6408H30.3571Z" fill="#C16941"/>
<path d="M32.9963 48.7591H31.6834H30.3571H29.0442V47.4756H27.7313H26.4185V48.7591V50.0425V51.326H27.7313V52.6095H29.0442H30.3571V53.893H31.6834H32.9963V52.6095H34.3092H35.6221V51.326H36.9349V50.0425V48.7591V47.4756H35.6221H34.3092V48.7591H32.9963Z" fill="#C16941"/>
<path d="M15.9153 30.7905V32.074V33.3575V34.641H17.2282V35.9244H18.5411V34.641V33.3575V32.074V30.7905H17.2282H15.9153Z" fill="#C16941"/>
<g clip-path="url(#clip3_374_26898)">
<path d="M44.7051 57.7565V56.473H43.3922V55.1895H42.0793V53.906H40.7664H39.4535V52.6226H38.1406H36.8277V53.906H35.5149H34.1886V55.1895H32.8891H31.5628H30.2499V53.906H28.937H27.6241H26.3113V52.6226H24.9984H23.6855H22.3726H21.0597V53.906H19.7468V55.1895H18.4339H17.1211V56.473H15.8082V57.7565H17.1211V59.0399H18.4339H19.7468H21.0597V60.3234H22.3726V61.6069H23.6855H24.9984H26.3113V62.8904H27.6241H28.937H30.2499H31.5628H32.8891H34.1886H35.5149H36.8277H38.1406V61.6069H39.4535H40.7664H42.0793V60.3234H43.3922H44.7051V59.0399H46.0179V57.7565H44.7051Z" fill="#F3EF9B"/>
<path d="M46.018 56.4727H44.7051V57.7561H46.018V59.0396H47.3309V57.7561V56.4727H46.018Z" fill="#3A2724"/>
<path d="M44.7051 53.9058H43.3922H42.0793V55.1892H43.3922V56.4727H44.7051V55.1892V53.9058Z" fill="#3A2724"/>
<path d="M40.7664 52.6226H39.4535V53.906H40.7664H42.0793V52.6226H40.7664Z" fill="#3A2724"/>
<path d="M38.1407 51.3389H36.8278H35.5149V52.6223H34.1886H32.8891V53.9058H31.5628H30.2499V55.1893H31.5628H32.8891H34.1886V53.9058H35.5149H36.8278V52.6223H38.1407H39.4535V51.3389H38.1407Z" fill="#3A2724"/>
<path d="M28.937 52.6223H27.6241V51.3389H26.3112H24.9983H23.6855H22.3726H21.0597V52.6223H22.3726H23.6855H24.9983H26.3112V53.9058H27.6241H28.937H30.2499V52.6223H28.937Z" fill="#3A2724"/>
<path d="M21.0597 52.6226H19.7468V53.906H21.0597V52.6226Z" fill="#3A2724"/>
<path d="M17.121 53.9058V55.1892H18.4339H19.7468V53.9058H18.4339H17.121Z" fill="#3A2724"/>
<path d="M17.1211 55.1895H15.8082V56.4729H17.1211V55.1895Z" fill="#3A2724"/>
</g>
<defs>
<clipPath id="clip0_374_26898">
<rect width="65.0146" height="64.2" fill="white"/>
</clipPath>
<clipPath id="clip1_374_26898">
<rect width="65.0146" height="64.2" fill="white"/>
</clipPath>
<clipPath id="clip2_374_26898">
<rect width="65.0146" height="64.2" fill="white" transform="translate(0.401917)"/>
</clipPath>
<clipPath id="clip3_374_26898">
<rect width="31.5227" height="11.5513" fill="white" transform="translate(15.8082 51.3389)"/>
</clipPath>
</defs>
</svg>
