<svg width="81" height="75" viewBox="0 0 81 75" fill="none" xmlns="http://www.w3.org/2000/svg">
<ellipse cx="40.5" cy="37.5" rx="40.5" ry="37.5" fill="white"/>
<path fill-rule="evenodd" clip-rule="evenodd" d="M35.445 59.0001H46.555C54.3575 59.0001 58.26 59.0001 61.0625 57.1626C62.2721 56.3705 63.3136 55.3476 64.1275 54.1526C66 51.4026 66 47.5701 66 39.9101C66 32.2501 66 28.4176 64.1275 25.6676C63.3136 24.4726 62.2721 23.4498 61.0625 22.6576C59.2625 21.4751 57.0075 21.0526 53.555 20.9026C51.9075 20.9026 50.49 19.6776 50.1675 18.0901C49.921 16.9273 49.2807 15.8852 48.3546 15.14C47.4286 14.3948 46.2736 13.9921 45.085 14.0001H36.915C34.445 14.0001 32.3175 15.7126 31.8325 18.0901C31.51 19.6776 30.0925 20.9026 28.445 20.9026C24.995 21.0526 22.74 21.4776 20.9375 22.6576C19.7288 23.45 18.6882 24.4728 17.875 25.6676C16 28.4176 16 32.2476 16 39.9101C16 47.5726 16 51.4001 17.8725 54.1526C18.6825 55.3426 19.7225 56.3651 20.9375 57.1626C23.74 59.0001 27.6425 59.0001 35.445 59.0001ZM41 29.6826C35.2475 29.6826 30.5825 34.2601 30.5825 39.9076C30.5825 45.5551 35.25 50.1401 41 50.1401C46.75 50.1401 51.4175 45.5601 51.4175 39.9126C51.4175 34.2651 46.75 29.6826 41 29.6826ZM41 33.7726C37.55 33.7726 34.75 36.5201 34.75 39.9101C34.75 43.2976 37.55 46.0451 41 46.0451C44.45 46.0451 47.25 43.2976 47.25 39.9101C47.25 36.5226 44.45 33.7726 41 33.7726ZM52.805 31.7276C52.805 30.5976 53.7375 29.6826 54.89 29.6826H57.665C58.815 29.6826 59.75 30.5976 59.75 31.7276C59.7447 32.2749 59.5224 32.7976 59.1319 33.1811C58.7415 33.5645 58.2147 33.7773 57.6675 33.7726H54.89C54.6188 33.7753 54.3498 33.7245 54.0982 33.6231C53.8467 33.5218 53.6176 33.3719 53.4239 33.182C53.2303 32.9921 53.076 32.7659 52.9698 32.5164C52.8636 32.2668 52.8076 31.9988 52.805 31.7276Z" fill="#9E9898"/>
</svg>
