<svg width="32" height="32" viewBox="0 0 32 32" fill="none" xmlns="http://www.w3.org/2000/svg">
<path d="M28.4137 9.17122L22.8287 3.58497C22.643 3.39921 22.4225 3.25185 22.1798 3.15131C21.9372 3.05077 21.6771 2.99902 21.4144 2.99902C21.1517 2.99902 20.8916 3.05077 20.6489 3.15131C20.4062 3.25185 20.1857 3.39921 20 3.58497L4.58624 19C4.39972 19.185 4.25184 19.4053 4.15119 19.648C4.05055 19.8907 3.99916 20.151 3.99999 20.4137V26C3.99999 26.5304 4.21071 27.0391 4.58578 27.4142C4.96085 27.7893 5.46956 28 5.99999 28H11.5862C11.849 28.0008 12.1093 27.9494 12.352 27.8488C12.5947 27.7481 12.815 27.6002 13 27.4137L28.4137 12C28.5995 11.8142 28.7469 11.5937 28.8474 11.3511C28.9479 11.1084 28.9997 10.8483 28.9997 10.5856C28.9997 10.3229 28.9479 10.0628 28.8474 9.82012C28.7469 9.57744 28.5995 9.35695 28.4137 9.17122ZM6.41374 20L17.7075 8.70622L19.7925 10.7925L8.49999 22.085L6.41374 20ZM5.99999 22.4137L9.58625 26H5.99999V22.4137ZM12 25.5862L9.91374 23.5L21.2075 12.2062L23.2925 14.2925L12 25.5862Z" fill="#ECF411"/>
</svg>
