<svg width="70" height="70" viewBox="0 0 70 70" fill="none" xmlns="http://www.w3.org/2000/svg">
<g clip-path="url(#clip0_379_27069)">
<path d="M68 37.1877C68 37.7679 67.7695 38.3243 67.3593 38.7345C66.9491 39.1447 66.3927 39.3752 65.8125 39.3752H61.4375V43.7502C61.4375 44.3304 61.207 44.8868 60.7968 45.297C60.3866 45.7072 59.8302 45.9377 59.25 45.9377C58.6698 45.9377 58.1134 45.7072 57.7032 45.297C57.293 44.8868 57.0625 44.3304 57.0625 43.7502V39.3752H52.6875C52.1073 39.3752 51.5509 39.1447 51.1407 38.7345C50.7305 38.3243 50.5 37.7679 50.5 37.1877C50.5 36.6075 50.7305 36.0511 51.1407 35.6409C51.5509 35.2307 52.1073 35.0002 52.6875 35.0002H57.0625V30.6252C57.0625 30.045 57.293 29.4886 57.7032 29.0784C58.1134 28.6682 58.6698 28.4377 59.25 28.4377C59.8302 28.4377 60.3866 28.6682 60.7968 29.0784C61.207 29.4886 61.4375 30.045 61.4375 30.6252V35.0002H65.8125C66.3927 35.0002 66.9491 35.2307 67.3593 35.6409C67.7695 36.0511 68 36.6075 68 37.1877ZM37.375 43.1158C40.8042 40.98 43.4444 37.7855 44.8963 34.0155C46.3483 30.2455 46.5328 26.1052 45.4221 22.221C44.3114 18.3367 41.9659 14.9199 38.7404 12.4875C35.5148 10.055 31.5848 8.73926 27.5449 8.73926C23.505 8.73926 19.575 10.055 16.3495 12.4875C13.124 14.9199 10.7784 18.3367 9.66771 22.221C8.557 26.1052 8.74157 30.2455 10.1935 34.0155C11.6454 37.7855 14.2857 40.98 17.7148 43.1158C12.0684 44.9643 6.98789 48.4178 2.90273 53.2795C2.63528 53.5974 2.46389 53.9849 2.4086 54.3966C2.35332 54.8084 2.41642 55.2273 2.59053 55.6045C2.76464 55.9817 3.04256 56.3015 3.39178 56.5265C3.74099 56.7516 4.14707 56.8725 4.5625 56.8752H50.5C50.9168 56.8756 51.3251 56.7569 51.6767 56.5331C52.0284 56.3093 52.3088 55.9897 52.4849 55.6119C52.661 55.2341 52.7255 54.8139 52.6708 54.4007C52.6161 53.9874 52.4445 53.5985 52.1762 53.2795C48.0883 48.4178 43.0078 44.9643 37.375 43.1158Z" fill="white"/>
</g>
<defs>
<clipPath id="clip0_379_27069">
<rect width="70" height="70" fill="white"/>
</clipPath>
</defs>
</svg>
