<svg width="103" height="40" viewBox="0 0 103 40" fill="none" xmlns="http://www.w3.org/2000/svg">
<g filter="url(#filter0_d_627_31305)">
<path d="M6 0V3H3V6H0V31H3V34H6V37H9V0H6Z" fill="#FC6032"/>
</g>
<path d="M6 0V3H3V6H0V31H3V34H6V37H9V0H6Z" fill="white" fill-opacity="0.3"/>
<g filter="url(#filter1_d_627_31305)">
<rect width="82" height="37" transform="translate(9)" fill="#FC6032"/>
<path d="M13.1992 27.6914C12.2878 27.6914 11.5716 27.4505 11.0508 26.9688C10.5299 26.487 10.2695 25.9141 10.2695 25.25C10.2695 24.5859 10.5299 24.013 11.0508 23.5312C11.5716 23.0495 12.2878 22.8086 13.1992 22.8086H14.8008C15.7122 22.8086 16.4284 23.0495 16.9492 23.5312C17.4701 24.013 17.7305 24.5859 17.7305 25.25C17.7305 25.9141 17.4701 26.487 16.9492 26.9688C16.4284 27.4505 15.7122 27.6914 14.8008 27.6914H13.1992ZM25.6992 27.6914C24.7878 27.6914 24.0716 27.4505 23.5508 26.9688C23.0299 26.487 22.7695 25.9141 22.7695 25.25C22.7695 24.5859 23.0299 24.013 23.5508 23.5312C24.0716 23.0495 24.7878 22.8086 25.6992 22.8086H27.3008C28.2122 22.8086 28.9284 23.0495 29.4492 23.5312C29.9701 24.013 30.2305 24.5859 30.2305 25.25C30.2305 25.9141 29.9701 26.487 29.4492 26.9688C28.9284 27.4505 28.2122 27.6914 27.3008 27.6914H25.6992ZM13.1992 25.1914C12.2878 25.1914 11.5716 24.9505 11.0508 24.4688C10.5299 23.987 10.2695 23.4141 10.2695 22.75C10.2695 22.0859 10.5299 21.513 11.0508 21.0312C11.5716 20.5495 12.2878 20.3086 13.1992 20.3086H14.8008C15.7122 20.3086 16.4284 20.5495 16.9492 21.0312C17.4701 21.513 17.7305 22.0859 17.7305 22.75C17.7305 23.4141 17.4701 23.987 16.9492 24.4688C16.4284 24.9505 15.7122 25.1914 14.8008 25.1914H13.1992ZM25.6992 25.1914C24.7878 25.1914 24.0716 24.9505 23.5508 24.4688C23.0299 23.987 22.7695 23.4141 22.7695 22.75C22.7695 22.0859 23.0299 21.513 23.5508 21.0312C24.0716 20.5495 24.7878 20.3086 25.6992 20.3086H27.3008C28.2122 20.3086 28.9284 20.5495 29.4492 21.0312C29.9701 21.513 30.2305 22.0859 30.2305 22.75C30.2305 23.4141 29.9701 23.987 29.4492 24.4688C28.9284 24.9505 28.2122 25.1914 27.3008 25.1914H25.6992ZM13.1992 22.6914C12.2878 22.6914 11.5716 22.4505 11.0508 21.9688C10.5299 21.487 10.2695 20.9141 10.2695 20.25C10.2695 19.5859 10.5299 19.013 11.0508 18.5312C11.5716 18.0495 12.2878 17.8086 13.1992 17.8086H14.8008C15.7122 17.8086 16.4284 18.0495 16.9492 18.5312C17.4701 19.013 17.7305 19.5859 17.7305 20.25C17.7305 20.9141 17.4701 21.487 16.9492 21.9688C16.4284 22.4505 15.7122 22.6914 14.8008 22.6914H13.1992ZM25.6992 22.6914C24.7878 22.6914 24.0716 22.4505 23.5508 21.9688C23.0299 21.487 22.7695 20.9141 22.7695 20.25C22.7695 19.5859 23.0299 19.013 23.5508 18.5312C24.0716 18.0495 24.7878 17.8086 25.6992 17.8086H27.3008C28.2122 17.8086 28.9284 18.0495 29.4492 18.5312C29.9701 19.013 30.2305 19.5859 30.2305 20.25C30.2305 20.9141 29.9701 21.487 29.4492 21.9688C28.9284 22.4505 28.2122 22.6914 27.3008 22.6914H25.6992ZM13.1992 20.1914C12.2878 20.1914 11.5716 19.9505 11.0508 19.4688C10.5299 18.987 10.2695 18.4141 10.2695 17.75C10.2695 17.0859 10.5299 16.513 11.0508 16.0312C11.5716 15.5495 12.2878 15.3086 13.1992 15.3086H14.8008C15.7122 15.3086 16.4284 15.5495 16.9492 16.0312C17.4701 16.513 17.7305 17.0859 17.7305 17.75C17.7305 18.4141 17.4701 18.987 16.9492 19.4688C16.4284 19.9505 15.7122 20.1914 14.8008 20.1914H13.1992ZM20.2109 20.1914C19.5208 20.1914 18.9414 19.9505 18.4727 19.4688C18.0039 18.987 17.7695 18.4141 17.7695 17.75C17.7695 17.0859 18.0039 16.513 18.4727 16.0312C18.9414 15.5495 19.5208 15.3086 20.2109 15.3086H20.2891C20.9792 15.3086 21.5586 15.5495 22.0273 16.0312C22.4961 16.513 22.7305 17.0859 22.7305 17.75C22.7305 18.4141 22.4961 18.987 22.0273 19.4688C21.5586 19.9505 20.9792 20.1914 20.2891 20.1914H20.2109ZM25.6992 20.1914C24.7878 20.1914 24.0716 19.9505 23.5508 19.4688C23.0299 18.987 22.7695 18.4141 22.7695 17.75C22.7695 17.0859 23.0299 16.513 23.5508 16.0312C24.0716 15.5495 24.7878 15.3086 25.6992 15.3086H27.3008C28.2122 15.3086 28.9284 15.5495 29.4492 16.0312C29.9701 16.513 30.2305 17.0859 30.2305 17.75C30.2305 18.4141 29.9701 18.987 29.4492 19.4688C28.9284 19.9505 28.2122 20.1914 27.3008 20.1914H25.6992ZM13.1992 17.6914C12.2878 17.6914 11.5716 17.4505 11.0508 16.9688C10.5299 16.487 10.2695 15.9141 10.2695 15.25C10.2695 14.5859 10.5299 14.013 11.0508 13.5312C11.5716 13.0495 12.2878 12.8086 13.1992 12.8086H27.3008C28.2122 12.8086 28.9284 13.0495 29.4492 13.5312C29.9701 14.013 30.2305 14.5859 30.2305 15.25C30.2305 15.9141 29.9701 16.487 29.4492 16.9688C28.9284 17.4505 28.2122 17.6914 27.3008 17.6914H13.1992ZM13.1992 15.1914C12.2878 15.1914 11.5716 14.9505 11.0508 14.4688C10.5299 13.987 10.2695 13.4141 10.2695 12.75C10.2695 12.0859 10.5299 11.513 11.0508 11.0312C11.5716 10.5495 12.2878 10.3086 13.1992 10.3086H17.3008C18.2122 10.3086 18.9284 10.5495 19.4492 11.0312C19.9701 11.513 20.2305 12.0859 20.2305 12.75C20.2305 13.4141 19.9701 13.987 19.4492 14.4688C18.9284 14.9505 18.2122 15.1914 17.3008 15.1914H13.1992ZM23.1992 15.1914C22.2878 15.1914 21.5716 14.9505 21.0508 14.4688C20.5299 13.987 20.2695 13.4141 20.2695 12.75C20.2695 12.0859 20.5299 11.513 21.0508 11.0312C21.5716 10.5495 22.2878 10.3086 23.1992 10.3086H27.3008C28.2122 10.3086 28.9284 10.5495 29.4492 11.0312C29.9701 11.513 30.2305 12.0859 30.2305 12.75C30.2305 13.4141 29.9701 13.987 29.4492 14.4688C28.9284 14.9505 28.2122 15.1914 27.3008 15.1914H23.1992ZM13.1992 12.6914C12.2878 12.6914 11.5716 12.4505 11.0508 11.9688C10.5299 11.487 10.2695 10.9141 10.2695 10.25C10.2695 9.58594 10.5299 9.01302 11.0508 8.53125C11.5716 8.04948 12.2878 7.80859 13.1992 7.80859H14.8008C15.7122 7.80859 16.4284 8.04948 16.9492 8.53125C17.4701 9.01302 17.7305 9.58594 17.7305 10.25C17.7305 10.9141 17.4701 11.487 16.9492 11.9688C16.4284 12.4505 15.7122 12.6914 14.8008 12.6914H13.1992ZM25.6992 12.6914C24.7878 12.6914 24.0716 12.4505 23.5508 11.9688C23.0299 11.487 22.7695 10.9141 22.7695 10.25C22.7695 9.58594 23.0299 9.01302 23.5508 8.53125C24.0716 8.04948 24.7878 7.80859 25.6992 7.80859H27.3008C28.2122 7.80859 28.9284 8.04948 29.4492 8.53125C29.9701 9.01302 30.2305 9.58594 30.2305 10.25C30.2305 10.9141 29.9701 11.487 29.4492 11.9688C28.9284 12.4505 28.2122 12.6914 27.3008 12.6914H25.6992ZM33.6992 27.6914C32.7878 27.6914 32.0716 27.4505 31.5508 26.9688C31.0299 26.487 30.7695 25.9141 30.7695 25.25C30.7695 24.5859 31.0299 24.013 31.5508 23.5312C32.0716 23.0495 32.7878 22.8086 33.6992 22.8086H45.3008C46.2122 22.8086 46.9284 23.0495 47.4492 23.5312C47.9701 24.013 48.2305 24.5859 48.2305 25.25C48.2305 25.9141 47.9701 26.487 47.4492 26.9688C46.9284 27.4505 46.2122 27.6914 45.3008 27.6914H33.6992ZM33.6992 25.1914C32.7878 25.1914 32.0716 24.9505 31.5508 24.4688C31.0299 23.987 30.7695 23.4141 30.7695 22.75C30.7695 22.0859 31.0299 21.513 31.5508 21.0312C32.0716 20.5495 32.7878 20.3086 33.6992 20.3086H35.3008C36.2122 20.3086 36.9284 20.5495 37.4492 21.0312C37.9701 21.513 38.2305 22.0859 38.2305 22.75C38.2305 23.4141 37.9701 23.987 37.4492 24.4688C36.9284 24.9505 36.2122 25.1914 35.3008 25.1914H33.6992ZM33.6992 22.6914C32.7878 22.6914 32.0716 22.4505 31.5508 21.9688C31.0299 21.487 30.7695 20.9141 30.7695 20.25C30.7695 19.5859 31.0299 19.013 31.5508 18.5312C32.0716 18.0495 32.7878 17.8086 33.6992 17.8086H35.3008C36.2122 17.8086 36.9284 18.0495 37.4492 18.5312C37.9701 19.013 38.2305 19.5859 38.2305 20.25C38.2305 20.9141 37.9701 21.487 37.4492 21.9688C36.9284 22.4505 36.2122 22.6914 35.3008 22.6914H33.6992ZM33.6992 20.1914C32.7878 20.1914 32.0716 19.9505 31.5508 19.4688C31.0299 18.987 30.7695 18.4141 30.7695 17.75C30.7695 17.0859 31.0299 16.513 31.5508 16.0312C32.0716 15.5495 32.7878 15.3086 33.6992 15.3086H40.3008C41.2122 15.3086 41.9284 15.5495 42.4492 16.0312C42.9701 16.513 43.2305 17.0859 43.2305 17.75C43.2305 18.4141 42.9701 18.987 42.4492 19.4688C41.9284 19.9505 41.2122 20.1914 40.3008 20.1914H33.6992ZM33.6992 17.6914C32.7878 17.6914 32.0716 17.4505 31.5508 16.9688C31.0299 16.487 30.7695 15.9141 30.7695 15.25C30.7695 14.5859 31.0299 14.013 31.5508 13.5312C32.0716 13.0495 32.7878 12.8086 33.6992 12.8086H35.3008C36.2122 12.8086 36.9284 13.0495 37.4492 13.5312C37.9701 14.013 38.2305 14.5859 38.2305 15.25C38.2305 15.9141 37.9701 16.487 37.4492 16.9688C36.9284 17.4505 36.2122 17.6914 35.3008 17.6914H33.6992ZM33.6992 15.1914C32.7878 15.1914 32.0716 14.9505 31.5508 14.4688C31.0299 13.987 30.7695 13.4141 30.7695 12.75C30.7695 12.0859 31.0299 11.513 31.5508 11.0312C32.0716 10.5495 32.7878 10.3086 33.6992 10.3086H35.3008C36.2122 10.3086 36.9284 10.5495 37.4492 11.0312C37.9701 11.513 38.2305 12.0859 38.2305 12.75C38.2305 13.4141 37.9701 13.987 37.4492 14.4688C36.9284 14.9505 36.2122 15.1914 35.3008 15.1914H33.6992ZM33.6992 12.6914C32.7878 12.6914 32.0716 12.4505 31.5508 11.9688C31.0299 11.487 30.7695 10.9141 30.7695 10.25C30.7695 9.58594 31.0299 9.01302 31.5508 8.53125C32.0716 8.04948 32.7878 7.80859 33.6992 7.80859H45.3008C46.2122 7.80859 46.9284 8.04948 47.4492 8.53125C47.9701 9.01302 48.2305 9.58594 48.2305 10.25C48.2305 10.9141 47.9701 11.487 47.4492 11.9688C46.9284 12.4505 46.2122 12.6914 45.3008 12.6914H33.6992ZM54.1992 27.6914C53.2878 27.6914 52.5716 27.4505 52.0508 26.9688C51.5299 26.487 51.2695 25.9141 51.2695 25.25C51.2695 24.5859 51.5299 24.013 52.0508 23.5312C52.5716 23.0495 53.2878 22.8086 54.1992 22.8086H55.8008C56.7122 22.8086 57.4284 23.0495 57.9492 23.5312C58.4701 24.013 58.7305 24.5859 58.7305 25.25C58.7305 25.9141 58.4701 26.487 57.9492 26.9688C57.4284 27.4505 56.7122 27.6914 55.8008 27.6914H54.1992ZM64.1992 27.6914C63.2878 27.6914 62.5716 27.4505 62.0508 26.9688C61.5299 26.487 61.2695 25.9141 61.2695 25.25C61.2695 24.5859 61.5299 24.013 62.0508 23.5312C62.5716 23.0495 63.2878 22.8086 64.1992 22.8086H65.8008C66.7122 22.8086 67.4284 23.0495 67.9492 23.5312C68.4701 24.013 68.7305 24.5859 68.7305 25.25C68.7305 25.9141 68.4701 26.487 67.9492 26.9688C67.4284 27.4505 66.7122 27.6914 65.8008 27.6914H64.1992ZM54.1992 25.1914C53.2878 25.1914 52.5716 24.9505 52.0508 24.4688C51.5299 23.987 51.2695 23.4141 51.2695 22.75C51.2695 22.0859 51.5299 21.513 52.0508 21.0312C52.5716 20.5495 53.2878 20.3086 54.1992 20.3086H55.8008C56.7122 20.3086 57.4284 20.5495 57.9492 21.0312C58.4701 21.513 58.7305 22.0859 58.7305 22.75C58.7305 23.4141 58.4701 23.987 57.9492 24.4688C57.4284 24.9505 56.7122 25.1914 55.8008 25.1914H54.1992ZM64.1992 25.1914C63.2878 25.1914 62.5716 24.9505 62.0508 24.4688C61.5299 23.987 61.2695 23.4141 61.2695 22.75C61.2695 22.0859 61.5299 21.513 62.0508 21.0312C62.5716 20.5495 63.2878 20.3086 64.1992 20.3086H65.8008C66.7122 20.3086 67.4284 20.5495 67.9492 21.0312C68.4701 21.513 68.7305 22.0859 68.7305 22.75C68.7305 23.4141 68.4701 23.987 67.9492 24.4688C67.4284 24.9505 66.7122 25.1914 65.8008 25.1914H64.1992ZM54.1992 22.6914C53.2878 22.6914 52.5716 22.4505 52.0508 21.9688C51.5299 21.487 51.2695 20.9141 51.2695 20.25C51.2695 19.5859 51.5299 19.013 52.0508 18.5312C52.5716 18.0495 53.2878 17.8086 54.1992 17.8086H55.8008C56.7122 17.8086 57.4284 18.0495 57.9492 18.5312C58.4701 19.013 58.7305 19.5859 58.7305 20.25C58.7305 20.9141 58.4701 21.487 57.9492 21.9688C57.4284 22.4505 56.7122 22.6914 55.8008 22.6914H54.1992ZM64.1992 22.6914C63.2878 22.6914 62.5716 22.4505 62.0508 21.9688C61.5299 21.487 61.2695 20.9141 61.2695 20.25C61.2695 19.5859 61.5299 19.013 62.0508 18.5312C62.5716 18.0495 63.2878 17.8086 64.1992 17.8086H65.8008C66.7122 17.8086 67.4284 18.0495 67.9492 18.5312C68.4701 19.013 68.7305 19.5859 68.7305 20.25C68.7305 20.9141 68.4701 21.487 67.9492 21.9688C67.4284 22.4505 66.7122 22.6914 65.8008 22.6914H64.1992ZM54.1992 20.1914C53.2878 20.1914 52.5716 19.9505 52.0508 19.4688C51.5299 18.987 51.2695 18.4141 51.2695 17.75C51.2695 17.0859 51.5299 16.513 52.0508 16.0312C52.5716 15.5495 53.2878 15.3086 54.1992 15.3086H55.8008C56.7122 15.3086 57.4284 15.5495 57.9492 16.0312C58.4701 16.513 58.7305 17.0859 58.7305 17.75C58.7305 18.4141 58.4701 18.987 57.9492 19.4688C57.4284 19.9505 56.7122 20.1914 55.8008 20.1914H54.1992ZM61.6992 20.1914C60.7878 20.1914 60.0716 19.9505 59.5508 19.4688C59.0299 18.987 58.7695 18.4141 58.7695 17.75C58.7695 17.0859 59.0299 16.513 59.5508 16.0312C60.0716 15.5495 60.7878 15.3086 61.6992 15.3086H65.8008C66.7122 15.3086 67.4284 15.5495 67.9492 16.0312C68.4701 16.513 68.7305 17.0859 68.7305 17.75C68.7305 18.4141 68.4701 18.987 67.9492 19.4688C67.4284 19.9505 66.7122 20.1914 65.8008 20.1914H61.6992ZM54.1992 17.6914C53.2878 17.6914 52.5716 17.4505 52.0508 16.9688C51.5299 16.487 51.2695 15.9141 51.2695 15.25C51.2695 14.5859 51.5299 14.013 52.0508 13.5312C52.5716 13.0495 53.2878 12.8086 54.1992 12.8086H65.8008C66.7122 12.8086 67.4284 13.0495 67.9492 13.5312C68.4701 14.013 68.7305 14.5859 68.7305 15.25C68.7305 15.9141 68.4701 16.487 67.9492 16.9688C67.4284 17.4505 66.7122 17.6914 65.8008 17.6914H54.1992ZM54.1992 15.1914C53.2878 15.1914 52.5716 14.9505 52.0508 14.4688C51.5299 13.987 51.2695 13.4141 51.2695 12.75C51.2695 12.0859 51.5299 11.513 52.0508 11.0312C52.5716 10.5495 53.2878 10.3086 54.1992 10.3086H58.3008C59.2122 10.3086 59.9284 10.5495 60.4492 11.0312C60.9701 11.513 61.2305 12.0859 61.2305 12.75C61.2305 13.4141 60.9701 13.987 60.4492 14.4688C59.9284 14.9505 59.2122 15.1914 58.3008 15.1914H54.1992ZM64.1992 15.1914C63.2878 15.1914 62.5716 14.9505 62.0508 14.4688C61.5299 13.987 61.2695 13.4141 61.2695 12.75C61.2695 12.0859 61.5299 11.513 62.0508 11.0312C62.5716 10.5495 63.2878 10.3086 64.1992 10.3086H65.8008C66.7122 10.3086 67.4284 10.5495 67.9492 11.0312C68.4701 11.513 68.7305 12.0859 68.7305 12.75C68.7305 13.4141 68.4701 13.987 67.9492 14.4688C67.4284 14.9505 66.7122 15.1914 65.8008 15.1914H64.1992ZM54.1992 12.6914C53.2878 12.6914 52.5716 12.4505 52.0508 11.9688C51.5299 11.487 51.2695 10.9141 51.2695 10.25C51.2695 9.58594 51.5299 9.01302 52.0508 8.53125C52.5716 8.04948 53.2878 7.80859 54.1992 7.80859H55.8008C56.7122 7.80859 57.4284 8.04948 57.9492 8.53125C58.4701 9.01302 58.7305 9.58594 58.7305 10.25C58.7305 10.9141 58.4701 11.487 57.9492 11.9688C57.4284 12.4505 56.7122 12.6914 55.8008 12.6914H54.1992ZM64.1992 12.6914C63.2878 12.6914 62.5716 12.4505 62.0508 11.9688C61.5299 11.487 61.2695 10.9141 61.2695 10.25C61.2695 9.58594 61.5299 9.01302 62.0508 8.53125C62.5716 8.04948 63.2878 7.80859 64.1992 7.80859H65.8008C66.7122 7.80859 67.4284 8.04948 67.9492 8.53125C68.4701 9.01302 68.7305 9.58594 68.7305 10.25C68.7305 10.9141 68.4701 11.487 67.9492 11.9688C67.4284 12.4505 66.7122 12.6914 65.8008 12.6914H64.1992ZM77.1992 27.6914C76.2878 27.6914 75.5716 27.4505 75.0508 26.9688C74.5299 26.487 74.2695 25.9141 74.2695 25.25C74.2695 24.5859 74.5299 24.013 75.0508 23.5312C75.5716 23.0495 76.2878 22.8086 77.1992 22.8086H83.8008C84.7122 22.8086 85.4284 23.0495 85.9492 23.5312C86.4701 24.013 86.7305 24.5859 86.7305 25.25C86.7305 25.9141 86.4701 26.487 85.9492 26.9688C85.4284 27.4505 84.7122 27.6914 83.8008 27.6914H77.1992ZM74.6992 25.1914C73.7878 25.1914 73.0716 24.9505 72.5508 24.4688C72.0299 23.987 71.7695 23.4141 71.7695 22.75C71.7695 22.0859 72.0299 21.513 72.5508 21.0312C73.0716 20.5495 73.7878 20.3086 74.6992 20.3086H76.3008C77.2122 20.3086 77.9284 20.5495 78.4492 21.0312C78.9701 21.513 79.2305 22.0859 79.2305 22.75C79.2305 23.4141 78.9701 23.987 78.4492 24.4688C77.9284 24.9505 77.2122 25.1914 76.3008 25.1914H74.6992ZM84.6992 25.1914C83.7878 25.1914 83.0716 24.9505 82.5508 24.4688C82.0299 23.987 81.7695 23.4141 81.7695 22.75C81.7695 22.0859 82.0299 21.513 82.5508 21.0312C83.0716 20.5495 83.7878 20.3086 84.6992 20.3086H86.3008C87.2122 20.3086 87.9284 20.5495 88.4492 21.0312C88.9701 21.513 89.2305 22.0859 89.2305 22.75C89.2305 23.4141 88.9701 23.987 88.4492 24.4688C87.9284 24.9505 87.2122 25.1914 86.3008 25.1914H84.6992ZM74.6992 22.6914C73.7878 22.6914 73.0716 22.4505 72.5508 21.9688C72.0299 21.487 71.7695 20.9141 71.7695 20.25C71.7695 19.5859 72.0299 19.013 72.5508 18.5312C73.0716 18.0495 73.7878 17.8086 74.6992 17.8086H76.3008C77.2122 17.8086 77.9284 18.0495 78.4492 18.5312C78.9701 19.013 79.2305 19.5859 79.2305 20.25C79.2305 20.9141 78.9701 21.487 78.4492 21.9688C77.9284 22.4505 77.2122 22.6914 76.3008 22.6914H74.6992ZM84.6992 22.6914C83.7878 22.6914 83.0716 22.4505 82.5508 21.9688C82.0299 21.487 81.7695 20.9141 81.7695 20.25C81.7695 19.5859 82.0299 19.013 82.5508 18.5312C83.0716 18.0495 83.7878 17.8086 84.6992 17.8086H86.3008C87.2122 17.8086 87.9284 18.0495 88.4492 18.5312C88.9701 19.013 89.2305 19.5859 89.2305 20.25C89.2305 20.9141 88.9701 21.487 88.4492 21.9688C87.9284 22.4505 87.2122 22.6914 86.3008 22.6914H84.6992ZM74.6992 20.1914C73.7878 20.1914 73.0716 19.9505 72.5508 19.4688C72.0299 18.987 71.7695 18.4141 71.7695 17.75C71.7695 17.0859 72.0299 16.513 72.5508 16.0312C73.0716 15.5495 73.7878 15.3086 74.6992 15.3086H76.3008C77.2122 15.3086 77.9284 15.5495 78.4492 16.0312C78.9701 16.513 79.2305 17.0859 79.2305 17.75C79.2305 18.4141 78.9701 18.987 78.4492 19.4688C77.9284 19.9505 77.2122 20.1914 76.3008 20.1914H74.6992ZM84.6992 20.1914C83.7878 20.1914 83.0716 19.9505 82.5508 19.4688C82.0299 18.987 81.7695 18.4141 81.7695 17.75C81.7695 17.0859 82.0299 16.513 82.5508 16.0312C83.0716 15.5495 83.7878 15.3086 84.6992 15.3086H86.3008C87.2122 15.3086 87.9284 15.5495 88.4492 16.0312C88.9701 16.513 89.2305 17.0859 89.2305 17.75C89.2305 18.4141 88.9701 18.987 88.4492 19.4688C87.9284 19.9505 87.2122 20.1914 86.3008 20.1914H84.6992ZM74.6992 17.6914C73.7878 17.6914 73.0716 17.4505 72.5508 16.9688C72.0299 16.487 71.7695 15.9141 71.7695 15.25C71.7695 14.5859 72.0299 14.013 72.5508 13.5312C73.0716 13.0495 73.7878 12.8086 74.6992 12.8086H76.3008C77.2122 12.8086 77.9284 13.0495 78.4492 13.5312C78.9701 14.013 79.2305 14.5859 79.2305 15.25C79.2305 15.9141 78.9701 16.487 78.4492 16.9688C77.9284 17.4505 77.2122 17.6914 76.3008 17.6914H74.6992ZM84.6992 17.6914C83.7878 17.6914 83.0716 17.4505 82.5508 16.9688C82.0299 16.487 81.7695 15.9141 81.7695 15.25C81.7695 14.5859 82.0299 14.013 82.5508 13.5312C83.0716 13.0495 83.7878 12.8086 84.6992 12.8086H86.3008C87.2122 12.8086 87.9284 13.0495 88.4492 13.5312C88.9701 14.013 89.2305 14.5859 89.2305 15.25C89.2305 15.9141 88.9701 16.487 88.4492 16.9688C87.9284 17.4505 87.2122 17.6914 86.3008 17.6914H84.6992ZM74.6992 15.1914C73.7878 15.1914 73.0716 14.9505 72.5508 14.4688C72.0299 13.987 71.7695 13.4141 71.7695 12.75C71.7695 12.0859 72.0299 11.513 72.5508 11.0312C73.0716 10.5495 73.7878 10.3086 74.6992 10.3086H76.3008C77.2122 10.3086 77.9284 10.5495 78.4492 11.0312C78.9701 11.513 79.2305 12.0859 79.2305 12.75C79.2305 13.4141 78.9701 13.987 78.4492 14.4688C77.9284 14.9505 77.2122 15.1914 76.3008 15.1914H74.6992ZM84.6992 15.1914C83.7878 15.1914 83.0716 14.9505 82.5508 14.4688C82.0299 13.987 81.7695 13.4141 81.7695 12.75C81.7695 12.0859 82.0299 11.513 82.5508 11.0312C83.0716 10.5495 83.7878 10.3086 84.6992 10.3086H86.3008C87.2122 10.3086 87.9284 10.5495 88.4492 11.0312C88.9701 11.513 89.2305 12.0859 89.2305 12.75C89.2305 13.4141 88.9701 13.987 88.4492 14.4688C87.9284 14.9505 87.2122 15.1914 86.3008 15.1914H84.6992ZM74.6992 12.6914C73.7878 12.6914 73.0716 12.4505 72.5508 11.9688C72.0299 11.487 71.7695 10.9141 71.7695 10.25C71.7695 9.58594 72.0299 9.01302 72.5508 8.53125C73.0716 8.04948 73.7878 7.80859 74.6992 7.80859H76.3008C77.2122 7.80859 77.9284 8.04948 78.4492 8.53125C78.9701 9.01302 79.2305 9.58594 79.2305 10.25C79.2305 10.9141 78.9701 11.487 78.4492 11.9688C77.9284 12.4505 77.2122 12.6914 76.3008 12.6914H74.6992ZM84.6992 12.6914C83.7878 12.6914 83.0716 12.4505 82.5508 11.9688C82.0299 11.487 81.7695 10.9141 81.7695 10.25C81.7695 9.58594 82.0299 9.01302 82.5508 8.53125C83.0716 8.04948 83.7878 7.80859 84.6992 7.80859H86.3008C87.2122 7.80859 87.9284 8.04948 88.4492 8.53125C88.9701 9.01302 89.2305 9.58594 89.2305 10.25C89.2305 10.9141 88.9701 11.487 88.4492 11.9688C87.9284 12.4505 87.2122 12.6914 86.3008 12.6914H84.6992Z" fill="white"/>
<rect x="9" width="82" height="37" fill="white" fill-opacity="0.3"/>
</g>
<g filter="url(#filter2_d_627_31305)">
<path d="M94 37V34H97V31H100V6H97V3H94V0H91V37H94Z" fill="#FC6032"/>
</g>
<path d="M94 37V34H97V31H100V6H97V3H94V0H91V37H94Z" fill="white" fill-opacity="0.3"/>
<defs>
<filter id="filter0_d_627_31305" x="0" y="0" width="12" height="40" filterUnits="userSpaceOnUse" color-interpolation-filters="sRGB">
<feFlood flood-opacity="0" result="BackgroundImageFix"/>
<feColorMatrix in="SourceAlpha" type="matrix" values="0 0 0 0 0 0 0 0 0 0 0 0 0 0 0 0 0 0 127 0" result="hardAlpha"/>
<feOffset dx="3" dy="3"/>
<feComposite in2="hardAlpha" operator="out"/>
<feColorMatrix type="matrix" values="0 0 0 0 0.117647 0 0 0 0 0.203922 0 0 0 0 0.270588 0 0 0 1 0"/>
<feBlend mode="normal" in2="BackgroundImageFix" result="effect1_dropShadow_627_31305"/>
<feBlend mode="normal" in="SourceGraphic" in2="effect1_dropShadow_627_31305" result="shape"/>
</filter>
<filter id="filter1_d_627_31305" x="9" y="0" width="85" height="40" filterUnits="userSpaceOnUse" color-interpolation-filters="sRGB">
<feFlood flood-opacity="0" result="BackgroundImageFix"/>
<feColorMatrix in="SourceAlpha" type="matrix" values="0 0 0 0 0 0 0 0 0 0 0 0 0 0 0 0 0 0 127 0" result="hardAlpha"/>
<feOffset dx="3" dy="3"/>
<feComposite in2="hardAlpha" operator="out"/>
<feColorMatrix type="matrix" values="0 0 0 0 0.117647 0 0 0 0 0.203922 0 0 0 0 0.270588 0 0 0 1 0"/>
<feBlend mode="normal" in2="BackgroundImageFix" result="effect1_dropShadow_627_31305"/>
<feBlend mode="normal" in="SourceGraphic" in2="effect1_dropShadow_627_31305" result="shape"/>
</filter>
<filter id="filter2_d_627_31305" x="91" y="0" width="12" height="40" filterUnits="userSpaceOnUse" color-interpolation-filters="sRGB">
<feFlood flood-opacity="0" result="BackgroundImageFix"/>
<feColorMatrix in="SourceAlpha" type="matrix" values="0 0 0 0 0 0 0 0 0 0 0 0 0 0 0 0 0 0 127 0" result="hardAlpha"/>
<feOffset dx="3" dy="3"/>
<feComposite in2="hardAlpha" operator="out"/>
<feColorMatrix type="matrix" values="0 0 0 0 0.117647 0 0 0 0 0.203922 0 0 0 0 0.270588 0 0 0 1 0"/>
<feBlend mode="normal" in2="BackgroundImageFix" result="effect1_dropShadow_627_31305"/>
<feBlend mode="normal" in="SourceGraphic" in2="effect1_dropShadow_627_31305" result="shape"/>
</filter>
</defs>
</svg>
