<svg width="32" height="32" viewBox="0 0 32 32" fill="none" xmlns="http://www.w3.org/2000/svg">
<path d="M30.93 21.7188C30.9306 21.7129 30.9306 21.7071 30.93 21.7013L28.8813 11.18C28.8813 11.1725 28.8813 11.165 28.8813 11.1575C28.565 9.43007 27.6533 7.86809 26.3048 6.74314C24.9563 5.61818 23.2561 5.00139 21.5 5H10.4863C8.72518 4.99932 7.02027 5.61962 5.67136 6.75179C4.32245 7.88395 3.41594 9.45549 3.11125 11.19L1.0725 21.7013C1.0719 21.7071 1.0719 21.7129 1.0725 21.7188C0.906555 22.661 1.04526 23.6317 1.46848 24.4898C1.89171 25.3479 2.57741 26.0487 3.42605 26.4906C4.27468 26.9325 5.24206 27.0924 6.18775 26.947C7.13343 26.8017 8.00818 26.3588 8.685 25.6825L8.72875 25.6362L13.69 20H18.315L23.2788 25.6362C23.2925 25.6525 23.3075 25.6675 23.3225 25.6825C24.166 26.5242 25.3084 26.9979 26.5 27C27.1568 26.9996 27.8056 26.8554 28.4008 26.5775C28.996 26.2996 29.5231 25.8948 29.9452 25.3915C30.3672 24.8882 30.674 24.2986 30.8439 23.6641C31.0138 23.0296 31.0428 22.3656 30.9288 21.7188H30.93ZM13 14H12V15C12 15.2652 11.8946 15.5196 11.7071 15.7071C11.5196 15.8946 11.2652 16 11 16C10.7348 16 10.4804 15.8946 10.2929 15.7071C10.1054 15.5196 10 15.2652 10 15V14H9C8.73479 14 8.48043 13.8946 8.2929 13.7071C8.10536 13.5196 8 13.2652 8 13C8 12.7348 8.10536 12.4804 8.2929 12.2929C8.48043 12.1054 8.73479 12 9 12H10V11C10 10.7348 10.1054 10.4804 10.2929 10.2929C10.4804 10.1054 10.7348 10 11 10C11.2652 10 11.5196 10.1054 11.7071 10.2929C11.8946 10.4804 12 10.7348 12 11V12H13C13.2652 12 13.5196 12.1054 13.7071 12.2929C13.8946 12.4804 14 12.7348 14 13C14 13.2652 13.8946 13.5196 13.7071 13.7071C13.5196 13.8946 13.2652 14 13 14ZM18 13C18 12.7348 18.1054 12.4804 18.2929 12.2929C18.4804 12.1054 18.7348 12 19 12H22C22.2652 12 22.5196 12.1054 22.7071 12.2929C22.8946 12.4804 23 12.7348 23 13C23 13.2652 22.8946 13.5196 22.7071 13.7071C22.5196 13.8946 22.2652 14 22 14H19C18.7348 14 18.4804 13.8946 18.2929 13.7071C18.1054 13.5196 18 13.2652 18 13ZM28.5463 23.9338C28.359 24.2034 28.12 24.4332 27.8432 24.6098C27.5664 24.7864 27.2572 24.9063 26.9338 24.9625C26.5424 25.0309 26.1404 25.0056 25.7608 24.8884C25.3812 24.7713 25.0348 24.5658 24.75 24.2887L20.975 20H21.5C22.7767 20.0002 24.0323 19.6744 25.1479 19.0536C26.2635 18.4328 27.2022 17.5375 27.875 16.4525L28.9675 22.0775C29.0231 22.3994 29.0146 22.7291 28.9423 23.0477C28.87 23.3663 28.7354 23.6674 28.5463 23.9338Z" fill="#E80000"/>
</svg>
