<svg width="56" height="46" viewBox="0 0 56 46" fill="none" xmlns="http://www.w3.org/2000/svg">
<path d="M19.4474 23.5002C18.2171 23.5002 17.1639 23.082 16.2878 22.2456C15.4117 21.4092 14.9737 20.4038 14.9737 19.2293C14.9737 18.0549 15.4117 17.0494 16.2878 16.2131C17.1639 15.3767 18.2171 14.9585 19.4474 14.9585C20.6776 14.9585 21.7308 15.3767 22.6069 16.2131C23.483 17.0494 23.9211 18.0549 23.9211 19.2293C23.9211 20.4038 23.483 21.4092 22.6069 22.2456C21.7308 23.082 20.6776 23.5002 19.4474 23.5002ZM10.5 32.0418V29.0522C10.5 28.4472 10.6631 27.8911 10.9893 27.384C11.3155 26.8768 11.7489 26.4897 12.2895 26.2228C13.4452 25.6712 14.6195 25.2574 15.8125 24.9816C17.0055 24.7058 18.2171 24.5679 19.4474 24.5679C20.6776 24.5679 21.8893 24.7058 23.0822 24.9816C24.2752 25.2574 25.4496 25.6712 26.6053 26.2228C27.1458 26.4897 27.5792 26.8768 27.9054 27.384C28.2316 27.8911 28.3947 28.4472 28.3947 29.0522V32.0418H10.5ZM12.7368 29.9064H26.1579V29.0522C26.1579 28.8565 26.1066 28.6785 26.0041 28.5184C25.9016 28.3582 25.7664 28.2337 25.5987 28.1447C24.5921 27.6642 23.5762 27.3039 22.551 27.0636C21.5258 26.8234 20.4912 26.7033 19.4474 26.7033C18.4035 26.7033 17.369 26.8234 16.3438 27.0636C15.3185 27.3039 14.3026 27.6642 13.2961 28.1447C13.1283 28.2337 12.9931 28.3582 12.8906 28.5184C12.7881 28.6785 12.7368 28.8565 12.7368 29.0522V29.9064ZM19.4474 21.3647C20.0625 21.3647 20.5891 21.1557 21.0271 20.7375C21.4652 20.3193 21.6842 19.8166 21.6842 19.2293C21.6842 18.6421 21.4652 18.1394 21.0271 17.7212C20.5891 17.303 20.0625 17.0939 19.4474 17.0939C18.8322 17.0939 18.3056 17.303 17.8676 17.7212C17.4296 18.1394 17.2105 18.6421 17.2105 19.2293C17.2105 19.8166 17.4296 20.3193 17.8676 20.7375C18.3056 21.1557 18.8322 21.3647 19.4474 21.3647Z" fill="#FEF7FF"/>
<path d="M37.8457 25.1551H31.4707V23.1265H37.8457V17.0405H39.9707V23.1265H46.3457V25.1551H39.9707V31.241H37.8457V25.1551Z" fill="#FEF7FF"/>
<rect x="1" y="1" width="54" height="44" rx="19" stroke="#DEE5EB" stroke-width="2"/>
</svg>
