<svg width="32" height="32" viewBox="0 0 32 32" fill="none" xmlns="http://www.w3.org/2000/svg">
<path d="M28.0007 8.88753C27.7653 9.00943 27.4911 9.03287 27.2384 8.95271C26.9858 8.87255 26.7752 8.69534 26.6532 8.46003C25.6987 6.57439 24.2539 4.98065 22.4707 3.84628C22.3595 3.77619 22.2633 3.68489 22.1875 3.57761C22.1116 3.47032 22.0576 3.34915 22.0286 3.221C21.9996 3.09286 21.9961 2.96025 22.0183 2.83075C22.0406 2.70126 22.0881 2.57741 22.1582 2.46628C22.2283 2.35515 22.3196 2.25891 22.4268 2.18306C22.5341 2.10721 22.6553 2.05324 22.7835 2.02422C22.9116 1.9952 23.0442 1.99171 23.1737 2.01394C23.3032 2.03617 23.427 2.08369 23.5382 2.15378C25.6164 3.48445 27.304 5.34323 28.4282 7.54003C28.5501 7.77543 28.5735 8.04959 28.4934 8.30227C28.4132 8.55495 28.236 8.76546 28.0007 8.88753ZM4.46442 9.00003C4.64763 8.99995 4.82729 8.94955 4.9838 8.85432C5.14031 8.75909 5.26765 8.6227 5.35193 8.46003C6.30643 6.57439 7.7512 4.98065 9.53442 3.84628C9.75886 3.70472 9.91788 3.4798 9.97648 3.221C10.0351 2.9622 9.98848 2.69072 9.84692 2.46628C9.70537 2.24184 9.48045 2.08283 9.22165 2.02422C8.96285 1.96562 8.69137 2.01222 8.46693 2.15378C6.38868 3.48445 4.70115 5.34323 3.57693 7.54003C3.49797 7.69243 3.45957 7.86258 3.46543 8.03412C3.47128 8.20566 3.52118 8.3728 3.61033 8.51946C3.69949 8.66613 3.82489 8.78738 3.97448 8.87154C4.12406 8.95571 4.29279 8.99996 4.46442 9.00003ZM27.7269 21.9925C27.9041 22.2963 27.998 22.6415 27.9992 22.9932C28.0004 23.3448 27.9089 23.6906 27.7338 23.9956C27.5587 24.3007 27.3063 24.5541 27.002 24.7304C26.6978 24.9068 26.3524 24.9998 26.0007 25H20.9007C20.6712 26.1303 20.0579 27.1465 19.1649 27.8764C18.2719 28.6063 17.154 29.005 16.0007 29.005C14.8473 29.005 13.7294 28.6063 12.8364 27.8764C11.9434 27.1465 11.3302 26.1303 11.1007 25H6.00067C5.6492 24.9993 5.30412 24.906 5.00018 24.7295C4.69625 24.553 4.4442 24.2995 4.26942 23.9946C4.09465 23.6896 4.00332 23.344 4.00464 22.9925C4.00595 22.6411 4.09987 22.2962 4.27692 21.9925C5.40317 20.0488 6.00067 17.285 6.00067 14C6.00067 11.3479 7.05424 8.80433 8.92961 6.92896C10.805 5.0536 13.3485 4.00003 16.0007 4.00003C18.6528 4.00003 21.1964 5.0536 23.0717 6.92896C24.9471 8.80433 26.0007 11.3479 26.0007 14C26.0007 17.2838 26.5982 20.0475 27.7269 21.9925ZM18.8282 25H13.1732C13.3804 25.5843 13.7634 26.09 14.2698 26.4477C14.7761 26.8054 15.3808 26.9974 16.0007 26.9974C16.6206 26.9974 17.2253 26.8054 17.7316 26.4477C18.2379 26.09 18.621 25.5843 18.8282 25Z" fill="#F1E91F"/>
</svg>
