<svg width="50" height="50" viewBox="0 0 50 50" fill="none" xmlns="http://www.w3.org/2000/svg">
<path fill-rule="evenodd" clip-rule="evenodd" d="M19.445 47.0001H30.555C38.3575 47.0001 42.26 47.0001 45.0625 45.1626C46.2721 44.3705 47.3136 43.3476 48.1275 42.1526C50 39.4026 50 35.5701 50 27.9101C50 20.2501 50 16.4176 48.1275 13.6676C47.3136 12.4726 46.2721 11.4498 45.0625 10.6576C43.2625 9.47512 41.0075 9.05262 37.555 8.90262C35.9075 8.90262 34.49 7.67762 34.1675 6.09012C33.921 4.92729 33.2807 3.88521 32.3546 3.13999C31.4286 2.39478 30.2736 1.99214 29.085 2.00012H20.915C18.445 2.00012 16.3175 3.71262 15.8325 6.09012C15.51 7.67762 14.0925 8.90262 12.445 8.90262C8.995 9.05262 6.74 9.47762 4.9375 10.6576C3.72884 11.45 2.68818 12.4728 1.875 13.6676C0 16.4176 0 20.2476 0 27.9101C0 35.5726 1.49012e-07 39.4001 1.8725 42.1526C2.6825 43.3426 3.7225 44.3651 4.9375 45.1626C7.74 47.0001 11.6425 47.0001 19.445 47.0001ZM25 17.6826C19.2475 17.6826 14.5825 22.2601 14.5825 27.9076C14.5825 33.5551 19.25 38.1401 25 38.1401C30.75 38.1401 35.4175 33.5601 35.4175 27.9126C35.4175 22.2651 30.75 17.6826 25 17.6826ZM25 21.7726C21.55 21.7726 18.75 24.5201 18.75 27.9101C18.75 31.2976 21.55 34.0451 25 34.0451C28.45 34.0451 31.25 31.2976 31.25 27.9101C31.25 24.5226 28.45 21.7726 25 21.7726ZM36.805 19.7276C36.805 18.5976 37.7375 17.6826 38.89 17.6826H41.665C42.815 17.6826 43.75 18.5976 43.75 19.7276C43.7447 20.2749 43.5224 20.7976 43.1319 21.1811C42.7415 21.5645 42.2147 21.7773 41.6675 21.7726H38.89C38.6188 21.7753 38.3498 21.7245 38.0982 21.6231C37.8467 21.5218 37.6176 21.3719 37.4239 21.182C37.2303 20.9921 37.076 20.7659 36.9698 20.5164C36.8636 20.2668 36.8076 19.9988 36.805 19.7276Z" fill="#9E9898"/>
</svg>
