<svg width="60" height="60" viewBox="0 0 60 60" fill="none" xmlns="http://www.w3.org/2000/svg">
<mask id="mask0_1170_51579" style="mask-type:luminance" maskUnits="userSpaceOnUse" x="0" y="0" width="60" height="60">
<path d="M60 0H0V60H60V0Z" fill="white"/>
</mask>
<g mask="url(#mask0_1170_51579)">
<path d="M58.2857 31.8751C58.2857 32.3724 58.0882 32.8493 57.7366 33.2009C57.385 33.5525 56.908 33.7501 56.4107 33.7501H52.6607V37.5001C52.6607 37.9974 52.4632 38.4743 52.1116 38.8259C51.76 39.1775 51.283 39.3751 50.7857 39.3751C50.2884 39.3751 49.8115 39.1775 49.4599 38.8259C49.1083 38.4743 48.9107 37.9974 48.9107 37.5001V33.7501H45.1607C44.6634 33.7501 44.1865 33.5525 43.8349 33.2009C43.4833 32.8493 43.2857 32.3724 43.2857 31.8751C43.2857 31.3778 43.4833 30.9009 43.8349 30.5493C44.1865 30.1977 44.6634 30.0001 45.1607 30.0001H48.9107V26.2501C48.9107 25.7528 49.1083 25.2759 49.4599 24.9243C49.8115 24.5727 50.2884 24.3751 50.7857 24.3751C51.283 24.3751 51.76 24.5727 52.1116 24.9243C52.4632 25.2759 52.6607 25.7528 52.6607 26.2501V30.0001H56.4107C56.908 30.0001 57.385 30.1977 57.7366 30.5493C58.0882 30.9009 58.2857 31.3778 58.2857 31.8751ZM32.0357 36.9563C34.975 35.1256 37.2381 32.3875 38.4826 29.1561C39.7271 25.9246 39.8853 22.3758 38.9332 19.0465C37.9812 15.7171 35.9708 12.7884 33.2061 10.7035C30.4413 8.6185 27.0727 7.49072 23.6099 7.49072C20.1472 7.49072 16.7786 8.6185 14.0139 10.7035C11.2492 12.7884 9.23864 15.7171 8.28662 19.0465C7.33459 22.3758 7.49279 25.9246 8.7373 29.1561C9.98178 32.3875 12.2449 35.1256 15.1841 36.9563C10.3444 38.5408 5.98963 41.5009 2.48807 45.6681C2.25882 45.9406 2.11192 46.2727 2.06453 46.6256C2.01714 46.9786 2.07123 47.3376 2.22047 47.6609C2.3697 47.9842 2.60792 48.2584 2.90725 48.4512C3.20658 48.6442 3.55464 48.7478 3.91073 48.7501H43.2857C43.643 48.7504 43.993 48.6487 44.2943 48.4569C44.5958 48.265 44.8361 47.9911 44.9871 47.6673C45.138 47.3434 45.1933 46.9833 45.1464 46.6291C45.0995 46.2748 44.9524 45.9415 44.7225 45.6681C41.2186 41.5009 36.8638 38.5408 32.0357 36.9563Z" fill="white"/>
<mask id="mask1_1170_51579" style="mask-type:luminance" maskUnits="userSpaceOnUse" x="0" y="0" width="60" height="60">
<path d="M60 0H0V60H60V0Z" fill="white"/>
</mask>
<g mask="url(#mask1_1170_51579)">
<path d="M61.2857 31.8751C61.2857 32.3724 61.0882 32.8493 60.7366 33.2009C60.385 33.5525 59.908 33.7501 59.4107 33.7501H55.6607V37.5001C55.6607 37.9974 55.4632 38.4743 55.1116 38.8259C54.76 39.1775 54.283 39.3751 53.7857 39.3751C53.2884 39.3751 52.8115 39.1775 52.4599 38.8259C52.1083 38.4743 51.9107 37.9974 51.9107 37.5001V33.7501H48.1607C47.6634 33.7501 47.1865 33.5525 46.8349 33.2009C46.4833 32.8493 46.2857 32.3724 46.2857 31.8751C46.2857 31.3778 46.4833 30.9009 46.8349 30.5493C47.1865 30.1977 47.6634 30.0001 48.1607 30.0001H51.9107V26.2501C51.9107 25.7528 52.1083 25.2759 52.4599 24.9243C52.8115 24.5727 53.2884 24.3751 53.7857 24.3751C54.283 24.3751 54.76 24.5727 55.1116 24.9243C55.4632 25.2759 55.6607 25.7528 55.6607 26.2501V30.0001H59.4107C59.908 30.0001 60.385 30.1977 60.7366 30.5493C61.0882 30.9009 61.2857 31.3778 61.2857 31.8751ZM35.0357 36.9563C37.975 35.1256 40.2381 32.3875 41.4826 29.1561C42.7271 25.9246 42.8853 22.3758 41.9332 19.0465C40.9812 15.7171 38.9708 12.7884 36.2061 10.7035C33.4413 8.6185 30.0727 7.49072 26.6099 7.49072C23.1472 7.49072 19.7786 8.6185 17.0139 10.7035C14.2492 12.7884 12.2386 15.7171 11.2866 19.0465C10.3346 22.3758 10.4928 25.9246 11.7373 29.1561C12.9818 32.3875 15.2449 35.1256 18.1841 36.9563C13.3444 38.5408 8.98963 41.5009 5.48807 45.6681C5.25882 45.9406 5.11192 46.2727 5.06453 46.6256C5.01714 46.9786 5.07123 47.3376 5.22047 47.6609C5.3697 47.9842 5.60792 48.2584 5.90725 48.4512C6.20658 48.6442 6.55464 48.7478 6.91073 48.7501H46.2857C46.643 48.7504 46.993 48.6487 47.2943 48.4569C47.5958 48.265 47.8361 47.9911 47.9871 47.6673C48.138 47.3434 48.1933 46.9833 48.1464 46.6291C48.0995 46.2748 47.9524 45.9415 47.7225 45.6681C44.2186 41.5009 39.8638 38.5408 35.0357 36.9563Z" fill="black"/>
</g>
</g>
</svg>
