<svg width="39" height="39" viewBox="0 0 39 39" fill="none" xmlns="http://www.w3.org/2000/svg">
<path opacity="0.2" d="M34.125 8.53125L19.5 21.9375L4.875 8.53125H34.125Z" fill="white"/>
<path d="M34.125 7.3125H4.875C4.55177 7.3125 4.24177 7.4409 4.01321 7.66946C3.78465 7.89802 3.65625 8.20802 3.65625 8.53125V29.25C3.65625 29.8965 3.91306 30.5165 4.37018 30.9736C4.8273 31.4307 5.44728 31.6875 6.09375 31.6875H32.9062C33.5527 31.6875 34.1727 31.4307 34.6298 30.9736C35.0869 30.5165 35.3438 29.8965 35.3438 29.25V8.53125C35.3438 8.20802 35.2153 7.89802 34.9868 7.66946C34.7582 7.4409 34.4482 7.3125 34.125 7.3125ZM19.5 20.2846L8.00871 9.75H30.9913L19.5 20.2846ZM15.0379 19.5L6.09375 27.6976V11.3024L15.0379 19.5ZM16.8416 21.1529L18.6697 22.8363C18.8946 23.0427 19.1887 23.1573 19.4939 23.1573C19.7991 23.1573 20.0932 23.0427 20.3181 22.8363L22.1462 21.1529L30.9821 29.25H8.00871L16.8416 21.1529ZM23.9621 19.5L32.9062 11.3009V27.6991L23.9621 19.5Z" fill="white"/>
</svg>
