<svg width="36" height="38" viewBox="0 0 36 38" fill="none" xmlns="http://www.w3.org/2000/svg">
<path opacity="0.2" d="M31.5 19C31.5 21.8184 30.7082 24.5735 29.2248 26.9169C27.7414 29.2603 25.633 31.0867 23.1662 32.1653C20.6994 33.2438 17.985 33.526 15.3663 32.9762C12.7475 32.4263 10.3421 31.0692 8.45406 29.0763C6.56606 27.0834 5.28031 24.5443 4.7594 21.78C4.2385 19.0158 4.50585 16.1506 5.52763 13.5468C6.54942 10.9429 8.27975 8.71737 10.4998 7.15156C12.7199 5.58575 15.33 4.75 18 4.75C21.5804 4.75 25.0142 6.25133 27.5459 8.92373C30.0777 11.5961 31.5 15.2207 31.5 19Z" fill="white"/>
<path d="M18 3.5625C15.1075 3.5625 12.2799 4.46789 9.87479 6.16419C7.46972 7.86048 5.5952 10.2715 4.48827 13.0923C3.38134 15.9132 3.09171 19.0171 3.65602 22.0117C4.22033 25.0063 5.61323 27.757 7.65857 29.916C9.70391 32.0749 12.3098 33.5452 15.1468 34.1409C17.9838 34.7365 20.9244 34.4308 23.5968 33.2624C26.2691 32.094 28.5532 30.1153 30.1602 27.5766C31.7673 25.0379 32.625 22.0532 32.625 19C32.6209 14.907 31.0788 10.983 28.3369 8.08881C25.5951 5.19466 21.8775 3.56682 18 3.5625ZM18 32.0625C15.5525 32.0625 13.1599 31.2964 11.1248 29.8611C9.08977 28.4257 7.50363 26.3857 6.567 23.9988C5.63036 21.6119 5.3853 18.9855 5.86279 16.4516C6.34028 13.9178 7.51889 11.5902 9.24956 9.76342C10.9802 7.93659 13.1852 6.69251 15.5858 6.18849C17.9863 5.68447 20.4745 5.94315 22.7357 6.93182C24.997 7.92049 26.9297 9.59475 28.2894 11.7429C29.6492 13.891 30.375 16.4165 30.375 19C30.3713 22.4632 29.0663 25.7834 26.7463 28.2322C24.4264 30.6811 21.2809 32.0586 18 32.0625ZM24.75 19C24.75 19.3149 24.6315 19.617 24.4205 19.8397C24.2095 20.0624 23.9234 20.1875 23.625 20.1875H19.125V24.9375C19.125 25.2524 19.0065 25.5545 18.7955 25.7772C18.5845 25.9999 18.2984 26.125 18 26.125C17.7016 26.125 17.4155 25.9999 17.2045 25.7772C16.9935 25.5545 16.875 25.2524 16.875 24.9375V20.1875H12.375C12.0766 20.1875 11.7905 20.0624 11.5795 19.8397C11.3685 19.617 11.25 19.3149 11.25 19C11.25 18.6851 11.3685 18.383 11.5795 18.1603C11.7905 17.9376 12.0766 17.8125 12.375 17.8125H16.875V13.0625C16.875 12.7476 16.9935 12.4455 17.2045 12.2228C17.4155 12.0001 17.7016 11.875 18 11.875C18.2984 11.875 18.5845 12.0001 18.7955 12.2228C19.0065 12.4455 19.125 12.7476 19.125 13.0625V17.8125H23.625C23.9234 17.8125 24.2095 17.9376 24.4205 18.1603C24.6315 18.383 24.75 18.6851 24.75 19Z" fill="white"/>
</svg>
