<svg width="40" height="40" viewBox="0 0 40 40" fill="none" xmlns="http://www.w3.org/2000/svg">
<path opacity="0.2" d="M34.3609 21.072L8.11407 36.0939C7.89205 36.218 7.63743 36.2715 7.38421 36.2471C7.131 36.2228 6.89124 36.1218 6.69697 35.9575C6.50269 35.7933 6.36314 35.5737 6.29695 35.3281C6.23077 35.0825 6.2411 34.8225 6.32657 34.5829L11.1703 20.4095C11.2688 20.1379 11.2688 19.8404 11.1703 19.5689L6.32657 5.43291C6.2411 5.19332 6.23077 4.93335 6.29695 4.68772C6.36314 4.4421 6.50269 4.22251 6.69697 4.0583C6.89124 3.89408 7.131 3.79304 7.38421 3.76868C7.63743 3.74433 7.89205 3.7978 8.11407 3.92198L34.3641 18.8985C34.5559 19.0079 34.7153 19.1662 34.8261 19.3573C34.9369 19.5483 34.9951 19.7653 34.9948 19.9862C34.9945 20.207 34.9357 20.4238 34.8243 20.6146C34.713 20.8053 34.5531 20.9631 34.3609 21.072Z" fill="#343330"/>
<path d="M34.9797 17.8124L8.72967 2.82963C8.28719 2.58142 7.77967 2.47371 7.27452 2.52081C6.76936 2.5679 6.2905 2.76757 5.90152 3.0933C5.51255 3.41903 5.23189 3.85539 5.09681 4.34442C4.96174 4.83345 4.97865 5.352 5.1453 5.8312L9.98905 19.9671C9.98843 19.9723 9.98843 19.9776 9.98905 19.9828C9.98818 19.9879 9.98818 19.9932 9.98905 19.9984L5.1453 34.1656C5.01184 34.5425 4.97075 34.946 5.02548 35.3421C5.08021 35.7382 5.22916 36.1154 5.45983 36.4421C5.6905 36.7687 5.99615 37.0353 6.35115 37.2193C6.70614 37.4034 7.10011 37.4996 7.49999 37.4999C7.93384 37.4988 8.36008 37.3858 8.73749 37.1718L34.9734 22.164C35.3604 21.9472 35.6828 21.6314 35.9074 21.2489C36.132 20.8664 36.2508 20.431 36.2516 19.9874C36.2524 19.5438 36.1352 19.108 35.9119 18.7247C35.6887 18.3414 35.3675 18.0244 34.9812 17.8062L34.9797 17.8124ZM7.49999 34.9999V34.9859L12.2094 21.2499H21.25C21.5815 21.2499 21.8995 21.1183 22.1339 20.8838C22.3683 20.6494 22.5 20.3315 22.5 19.9999C22.5 19.6684 22.3683 19.3505 22.1339 19.1161C21.8995 18.8816 21.5815 18.7499 21.25 18.7499H12.2219L7.50936 5.0187L7.49999 4.99995L33.75 19.9734L7.49999 34.9999Z" fill="#343330"/>
</svg>
